<svg width="185" height="51" viewBox="0 0 185 51" fill="none" xmlns="http://www.w3.org/2000/svg">
<path d="M184.801 49.6312C174.535 49.6312 174.535 38.5527 164.268 38.5527C154.001 38.5527 153.891 49.6312 143.734 49.6312C133.577 49.6312 133.468 38.5527 123.201 38.5527C112.934 38.5527 112.956 49.6312 102.689 49.6312C92.4226 49.6312 92.4226 38.5527 82.1558 38.5527C71.8891 38.5527 71.8891 49.6312 61.6224 49.6312C51.3557 49.6312 51.3556 38.5527 41.0889 38.5527C30.8221 38.5527 30.8002 49.6312 20.5335 49.6312C10.2667 49.6312 10.2668 38.5527 4.00009e-05 38.5527" stroke="#C5FCC3" stroke-width="2" stroke-miterlimit="10"/>
<path d="M184.801 30.875C174.535 30.875 174.535 19.9062 164.268 19.9062C154.001 19.9062 154.001 30.875 143.734 30.875C133.468 30.875 133.468 19.9062 123.201 19.9062C112.934 19.9062 112.956 30.875 102.689 30.875C92.4226 30.875 92.4226 19.9062 82.1558 19.9062C71.8891 19.9062 71.8891 30.875 61.6224 30.875C51.3557 30.875 51.3556 19.9062 41.0889 19.9062C30.8221 19.9062 30.8002 30.875 20.5335 30.875C10.2667 30.875 10.2668 19.9062 4.00009e-05 19.9062" stroke="#C5FCC3" stroke-width="2" stroke-miterlimit="10"/>
<path d="M184.801 12.0784C174.535 12.0784 174.535 1 164.268 0.999999C154.001 0.999999 154.001 12.0784 143.734 12.0784C133.468 12.0784 133.468 0.999998 123.201 0.999997C112.934 0.999997 112.956 12.0784 102.689 12.0784C92.4226 12.0784 92.4226 0.999996 82.1558 0.999996C71.8891 0.999995 71.8891 12.0784 61.6224 12.0784C51.3557 12.0784 51.3556 0.999994 41.0889 0.999994C30.8221 0.999993 30.8002 12.0784 20.5335 12.0784C10.2667 12.0784 10.2668 0.999992 4.00009e-05 0.999992" stroke="#C5FCC3" stroke-width="2" stroke-miterlimit="10"/>
</svg>
