<svg width="40" height="41" viewBox="0 0 40 41" fill="none" xmlns="http://www.w3.org/2000/svg">
<mask id="path-1-inside-1_1_388" fill="white">
<path d="M6.05469 3.8032C5.96875 3.85008 4.84375 5.44383 3.57031 7.35789L1.24219 10.8345L1.26562 12.8813L1.28906 14.9282L1.53906 15.4595C1.96875 16.3579 2.74219 17.0532 3.65625 17.3501L4.0625 17.4829V24.936V32.3891H3.16406C2.52344 32.3891 2.19531 32.4204 2.03906 32.4985C1.75781 32.647 1.34375 33.1157 1.28125 33.3579C1.25781 33.4595 1.25 34.0845 1.26562 34.7485C1.28906 35.936 1.29688 35.9595 1.50781 36.2407C1.625 36.4048 1.83594 36.5923 1.97656 36.6704C2.21094 36.7954 3.20312 36.8032 19.0234 36.8266C30.9766 36.8423 35.9062 36.8266 36.1172 36.7641C36.5234 36.647 36.9141 36.272 37.0703 35.8735C37.1797 35.6001 37.1953 35.3188 37.1719 34.4438C37.1484 33.4048 37.1406 33.3345 36.9297 33.0298C36.5859 32.5063 36.2656 32.3891 35.1953 32.3891H34.2969V31.9438C34.2969 31.5454 34.3516 31.397 34.9375 30.2876C35.4922 29.2251 35.6641 28.9673 36.2812 28.3032C37.0781 27.4438 37.1719 27.3032 37.2422 26.8032C37.3203 26.2095 37.125 25.8501 36.2812 25.0532C35.875 24.6704 35.5469 24.3423 35.5469 24.311C35.5469 24.2876 36.2031 23.561 37 22.686C37.8047 21.8188 38.5234 20.9595 38.6016 20.7876C38.7969 20.3657 38.7969 19.561 38.6016 19.147C38.2891 18.4673 37.625 18.0688 36.8203 18.0688C36.1641 18.0766 35.7344 18.3345 34.9297 19.2016L34.2969 19.8891V18.686V17.4751L34.7188 17.3579C35.6641 17.0845 36.5703 16.2173 36.9609 15.2173C37.125 14.8032 37.1406 14.6235 37.1719 12.8501L37.2031 10.9282L34.8516 7.40476C33.5625 5.46726 32.4375 3.84227 32.3516 3.8032C32.1484 3.68602 6.28125 3.69383 6.05469 3.8032ZM9.44531 5.41258C9.35938 5.62351 8.82031 6.82664 8.25781 8.09226L7.22656 10.397L5.17188 10.4204L3.125 10.436L4.9375 7.7407L6.75 5.04539H8.17969H9.60156L9.44531 5.41258ZM18.5156 7.7407V10.436H16.4062C14.6719 10.436 14.2969 10.4204 14.2969 10.3266C14.2969 10.2251 15.3516 5.45945 15.4375 5.1782C15.4766 5.06101 15.6172 5.04539 17 5.04539H18.5156V7.7407ZM28.4766 7.67039C29.125 9.1157 29.6641 10.3266 29.6719 10.3657C29.6875 10.4048 28.7812 10.436 27.6016 10.436H25.5L24.9297 7.83445C24.6094 6.41258 24.3359 5.19383 24.3203 5.13914C24.2891 5.06883 24.6172 5.04539 25.7891 5.04539H27.3047L28.4766 7.67039ZM12.7344 13.1157V14.4751L12.4922 14.9595C11.6406 16.6548 9.28125 16.5688 8.49219 14.8188C8.35156 14.5141 8.32031 14.2563 8.29688 13.1079L8.26562 11.7641H10.5H12.7344V13.1157ZM24.2969 12.9985C24.2969 14.5063 24.2109 14.8657 23.7109 15.4204C23.2188 15.9673 22.7656 16.1704 22.0703 16.1704C21.2031 16.1704 20.5156 15.7329 20.0938 14.9282C19.8984 14.5532 19.8828 14.4673 19.8594 13.147L19.8281 11.7641H22.0625H24.2969V12.9985ZM35.8438 13.147C35.8203 14.4204 35.7969 14.5688 35.6328 14.8891C35.2031 15.7251 34.5078 16.1704 33.6328 16.1704C32.9609 16.1626 32.625 16.0298 32.1172 15.5532C31.5078 14.9829 31.4062 14.6235 31.4062 13.0532V11.7641H33.6406H35.875L35.8438 13.147ZM14.7031 17.147C16.0469 17.8188 17.7031 17.561 18.7734 16.5141L19.2031 16.1001L19.6094 16.5063C20.9375 17.8501 23.2266 17.8579 24.5547 16.5141L24.9609 16.1001L25.3672 16.5063C26.7344 17.8579 28.9844 17.8579 30.3359 16.4985L30.7344 16.1001L31.1328 16.4985C31.5469 16.9204 32.0625 17.2173 32.6406 17.3891L32.9688 17.4907V19.4048C32.9688 21.2641 32.9609 21.3266 32.8047 21.5063L32.6328 21.6782L32.0156 21.1157C31.1875 20.3579 30.9688 20.2173 30.5859 20.1548C29.9141 20.061 29.6562 20.2016 28.6719 21.2095L27.7734 22.1313L24.5547 24.1391C21.6328 25.9595 21.3281 26.1704 21.25 26.4126C21.1797 26.6157 21.1875 26.7251 21.2656 26.8735C21.3281 26.9907 22.3516 27.9751 23.5547 29.0845C24.7578 30.186 26.0625 31.3813 26.4453 31.7407L27.1484 32.3891H21.5469H15.9375L15.9219 26.772L15.8984 21.1548L15.6562 20.8501C15.1719 20.2485 15.1562 20.2407 12 20.2173C10.1875 20.2016 9.0625 20.2251 8.80469 20.2798C8.32031 20.3813 7.9375 20.6626 7.73438 21.061C7.58594 21.3579 7.57812 21.5298 7.57812 26.8813V32.3891H6.48438H5.39062V24.936V17.4829L5.64844 17.4282C6.125 17.3266 6.72656 16.9829 7.19531 16.5532L7.65625 16.1157L8.10938 16.5454C8.91406 17.311 10 17.6626 11.0625 17.4829C11.7969 17.3579 12.625 16.9438 13.0547 16.4673L13.3984 16.0923L13.8281 16.5063C14.0625 16.7407 14.4531 17.0298 14.7031 17.147ZM33.1562 24.0063C34.6875 25.4048 35.9375 26.5845 35.9375 26.6235C35.9375 26.6626 35.7109 26.936 35.4375 27.2251L34.9297 27.7641L32.25 25.3032C30.7734 23.9516 29.5 22.7798 29.4219 22.7016C29.2734 22.561 29.2812 22.5454 29.7578 22.0063C30.0312 21.7016 30.2812 21.4516 30.3125 21.4516C30.3516 21.4516 31.625 22.6001 33.1562 24.0063ZM31.2109 26.186L34.1406 28.8813L32.7578 31.5923C32 33.0845 31.3672 34.3188 31.3594 34.3345C31.3281 34.3735 30.9609 34.061 30.2578 33.4048L29.6953 32.8735L30.3047 32.0688C30.6406 31.6235 30.9531 31.1782 31 31.0845C31.25 30.6313 30.9453 30.1235 30.4219 30.1235C30.0938 30.1235 29.9531 30.2563 29.2031 31.2563C28.9375 31.6235 28.6953 31.9204 28.6719 31.9204C28.6484 31.9126 28.4062 31.7095 28.1406 31.4595L27.6406 31.0141L28.3516 30.2407C28.9375 29.6001 29.0625 29.4204 29.0625 29.2173C29.0625 28.8579 28.9922 28.7251 28.7422 28.6001C28.3203 28.3813 28.2109 28.436 27.4062 29.272L26.6562 30.0688L26.1406 29.6157C25.8594 29.3735 25.625 29.1548 25.625 29.147C25.625 29.1313 26.2266 28.5923 26.9609 27.936C27.6953 27.272 28.3281 26.6548 28.3672 26.5454C28.5156 26.1548 28.1875 25.6704 27.7734 25.6704C27.4688 25.6704 27.3984 25.7251 25.8672 27.0923C25.2109 27.686 24.6484 28.1704 24.6172 28.1704C24.5547 28.1704 23.0781 26.8188 23.0547 26.7407C23.0391 26.6704 28.1016 23.4829 28.2188 23.4829C28.25 23.4829 29.6016 24.6938 31.2109 26.186ZM14.1016 26.5688C14.5156 26.9751 14.25 27.7798 13.7109 27.7798C13.3672 27.7798 13.125 27.4829 13.125 27.061C13.125 26.6938 13.3984 26.3735 13.7109 26.3735C13.8203 26.3735 14 26.4595 14.1016 26.5688ZM29.5703 34.6157L30.5078 35.5063L16.5938 35.5141C5.88281 35.5141 2.66406 35.4907 2.59375 35.4204C2.49219 35.3188 2.46094 34.0688 2.54688 33.8423C2.59375 33.7251 3.8125 33.7173 15.6172 33.7173L28.6328 33.7251L29.5703 34.6157ZM35.8203 34.6157V35.4751L34.0391 35.4985L32.2656 35.5141L32.7109 34.6157L33.1641 33.7173L34.4922 33.7329L35.8203 33.7563V34.6157Z"/>
</mask>
<path d="M6.05469 3.8032C5.96875 3.85008 4.84375 5.44383 3.57031 7.35789L1.24219 10.8345L1.26562 12.8813L1.28906 14.9282L1.53906 15.4595C1.96875 16.3579 2.74219 17.0532 3.65625 17.3501L4.0625 17.4829V24.936V32.3891H3.16406C2.52344 32.3891 2.19531 32.4204 2.03906 32.4985C1.75781 32.647 1.34375 33.1157 1.28125 33.3579C1.25781 33.4595 1.25 34.0845 1.26562 34.7485C1.28906 35.936 1.29688 35.9595 1.50781 36.2407C1.625 36.4048 1.83594 36.5923 1.97656 36.6704C2.21094 36.7954 3.20312 36.8032 19.0234 36.8266C30.9766 36.8423 35.9062 36.8266 36.1172 36.7641C36.5234 36.647 36.9141 36.272 37.0703 35.8735C37.1797 35.6001 37.1953 35.3188 37.1719 34.4438C37.1484 33.4048 37.1406 33.3345 36.9297 33.0298C36.5859 32.5063 36.2656 32.3891 35.1953 32.3891H34.2969V31.9438C34.2969 31.5454 34.3516 31.397 34.9375 30.2876C35.4922 29.2251 35.6641 28.9673 36.2812 28.3032C37.0781 27.4438 37.1719 27.3032 37.2422 26.8032C37.3203 26.2095 37.125 25.8501 36.2812 25.0532C35.875 24.6704 35.5469 24.3423 35.5469 24.311C35.5469 24.2876 36.2031 23.561 37 22.686C37.8047 21.8188 38.5234 20.9595 38.6016 20.7876C38.7969 20.3657 38.7969 19.561 38.6016 19.147C38.2891 18.4673 37.625 18.0688 36.8203 18.0688C36.1641 18.0766 35.7344 18.3345 34.9297 19.2016L34.2969 19.8891V18.686V17.4751L34.7188 17.3579C35.6641 17.0845 36.5703 16.2173 36.9609 15.2173C37.125 14.8032 37.1406 14.6235 37.1719 12.8501L37.2031 10.9282L34.8516 7.40476C33.5625 5.46726 32.4375 3.84227 32.3516 3.8032C32.1484 3.68602 6.28125 3.69383 6.05469 3.8032ZM9.44531 5.41258C9.35938 5.62351 8.82031 6.82664 8.25781 8.09226L7.22656 10.397L5.17188 10.4204L3.125 10.436L4.9375 7.7407L6.75 5.04539H8.17969H9.60156L9.44531 5.41258ZM18.5156 7.7407V10.436H16.4062C14.6719 10.436 14.2969 10.4204 14.2969 10.3266C14.2969 10.2251 15.3516 5.45945 15.4375 5.1782C15.4766 5.06101 15.6172 5.04539 17 5.04539H18.5156V7.7407ZM28.4766 7.67039C29.125 9.1157 29.6641 10.3266 29.6719 10.3657C29.6875 10.4048 28.7812 10.436 27.6016 10.436H25.5L24.9297 7.83445C24.6094 6.41258 24.3359 5.19383 24.3203 5.13914C24.2891 5.06883 24.6172 5.04539 25.7891 5.04539H27.3047L28.4766 7.67039ZM12.7344 13.1157V14.4751L12.4922 14.9595C11.6406 16.6548 9.28125 16.5688 8.49219 14.8188C8.35156 14.5141 8.32031 14.2563 8.29688 13.1079L8.26562 11.7641H10.5H12.7344V13.1157ZM24.2969 12.9985C24.2969 14.5063 24.2109 14.8657 23.7109 15.4204C23.2188 15.9673 22.7656 16.1704 22.0703 16.1704C21.2031 16.1704 20.5156 15.7329 20.0938 14.9282C19.8984 14.5532 19.8828 14.4673 19.8594 13.147L19.8281 11.7641H22.0625H24.2969V12.9985ZM35.8438 13.147C35.8203 14.4204 35.7969 14.5688 35.6328 14.8891C35.2031 15.7251 34.5078 16.1704 33.6328 16.1704C32.9609 16.1626 32.625 16.0298 32.1172 15.5532C31.5078 14.9829 31.4062 14.6235 31.4062 13.0532V11.7641H33.6406H35.875L35.8438 13.147ZM14.7031 17.147C16.0469 17.8188 17.7031 17.561 18.7734 16.5141L19.2031 16.1001L19.6094 16.5063C20.9375 17.8501 23.2266 17.8579 24.5547 16.5141L24.9609 16.1001L25.3672 16.5063C26.7344 17.8579 28.9844 17.8579 30.3359 16.4985L30.7344 16.1001L31.1328 16.4985C31.5469 16.9204 32.0625 17.2173 32.6406 17.3891L32.9688 17.4907V19.4048C32.9688 21.2641 32.9609 21.3266 32.8047 21.5063L32.6328 21.6782L32.0156 21.1157C31.1875 20.3579 30.9688 20.2173 30.5859 20.1548C29.9141 20.061 29.6562 20.2016 28.6719 21.2095L27.7734 22.1313L24.5547 24.1391C21.6328 25.9595 21.3281 26.1704 21.25 26.4126C21.1797 26.6157 21.1875 26.7251 21.2656 26.8735C21.3281 26.9907 22.3516 27.9751 23.5547 29.0845C24.7578 30.186 26.0625 31.3813 26.4453 31.7407L27.1484 32.3891H21.5469H15.9375L15.9219 26.772L15.8984 21.1548L15.6562 20.8501C15.1719 20.2485 15.1562 20.2407 12 20.2173C10.1875 20.2016 9.0625 20.2251 8.80469 20.2798C8.32031 20.3813 7.9375 20.6626 7.73438 21.061C7.58594 21.3579 7.57812 21.5298 7.57812 26.8813V32.3891H6.48438H5.39062V24.936V17.4829L5.64844 17.4282C6.125 17.3266 6.72656 16.9829 7.19531 16.5532L7.65625 16.1157L8.10938 16.5454C8.91406 17.311 10 17.6626 11.0625 17.4829C11.7969 17.3579 12.625 16.9438 13.0547 16.4673L13.3984 16.0923L13.8281 16.5063C14.0625 16.7407 14.4531 17.0298 14.7031 17.147ZM33.1562 24.0063C34.6875 25.4048 35.9375 26.5845 35.9375 26.6235C35.9375 26.6626 35.7109 26.936 35.4375 27.2251L34.9297 27.7641L32.25 25.3032C30.7734 23.9516 29.5 22.7798 29.4219 22.7016C29.2734 22.561 29.2812 22.5454 29.7578 22.0063C30.0312 21.7016 30.2812 21.4516 30.3125 21.4516C30.3516 21.4516 31.625 22.6001 33.1562 24.0063ZM31.2109 26.186L34.1406 28.8813L32.7578 31.5923C32 33.0845 31.3672 34.3188 31.3594 34.3345C31.3281 34.3735 30.9609 34.061 30.2578 33.4048L29.6953 32.8735L30.3047 32.0688C30.6406 31.6235 30.9531 31.1782 31 31.0845C31.25 30.6313 30.9453 30.1235 30.4219 30.1235C30.0938 30.1235 29.9531 30.2563 29.2031 31.2563C28.9375 31.6235 28.6953 31.9204 28.6719 31.9204C28.6484 31.9126 28.4062 31.7095 28.1406 31.4595L27.6406 31.0141L28.3516 30.2407C28.9375 29.6001 29.0625 29.4204 29.0625 29.2173C29.0625 28.8579 28.9922 28.7251 28.7422 28.6001C28.3203 28.3813 28.2109 28.436 27.4062 29.272L26.6562 30.0688L26.1406 29.6157C25.8594 29.3735 25.625 29.1548 25.625 29.147C25.625 29.1313 26.2266 28.5923 26.9609 27.936C27.6953 27.272 28.3281 26.6548 28.3672 26.5454C28.5156 26.1548 28.1875 25.6704 27.7734 25.6704C27.4688 25.6704 27.3984 25.7251 25.8672 27.0923C25.2109 27.686 24.6484 28.1704 24.6172 28.1704C24.5547 28.1704 23.0781 26.8188 23.0547 26.7407C23.0391 26.6704 28.1016 23.4829 28.2188 23.4829C28.25 23.4829 29.6016 24.6938 31.2109 26.186ZM14.1016 26.5688C14.5156 26.9751 14.25 27.7798 13.7109 27.7798C13.3672 27.7798 13.125 27.4829 13.125 27.061C13.125 26.6938 13.3984 26.3735 13.7109 26.3735C13.8203 26.3735 14 26.4595 14.1016 26.5688ZM29.5703 34.6157L30.5078 35.5063L16.5938 35.5141C5.88281 35.5141 2.66406 35.4907 2.59375 35.4204C2.49219 35.3188 2.46094 34.0688 2.54688 33.8423C2.59375 33.7251 3.8125 33.7173 15.6172 33.7173L28.6328 33.7251L29.5703 34.6157ZM35.8203 34.6157V35.4751L34.0391 35.4985L32.2656 35.5141L32.7109 34.6157L33.1641 33.7173L34.4922 33.7329L35.8203 33.7563V34.6157Z" fill="#FFB685" stroke="black" stroke-width="4" mask="url(#path-1-inside-1_1_388)"/>
<path d="M26.2203 21.2836C26.2207 21.2835 26.2154 21.2825 26.2031 21.2808C26.2137 21.2829 26.2199 21.2837 26.2203 21.2836Z" fill="#FFB685" stroke="black" stroke-width="2"/>
<path d="M31.0896 29.4224C31.0897 29.4231 31.0898 29.4238 31.0899 29.4246C31.0901 29.426 31.0905 29.4278 31.091 29.4299C31.0979 29.4594 31.128 29.5508 31.228 29.6329C31.3068 29.6976 31.376 29.7127 31.3995 29.7162C31.4015 29.7159 31.4038 29.7156 31.4062 29.7152C31.4174 29.7134 31.4323 29.7105 31.45 29.7059L31.4372 29.3745L31.437 29.3695L31.4348 29.312L31.4062 29.2891L31.1902 29.1163C31.1896 29.117 31.1891 29.1176 31.1885 29.1183C31.1012 29.2194 31.0787 29.3395 31.0896 29.4224ZM31.3834 29.7179C31.3835 29.7179 31.3851 29.7179 31.3881 29.7176C31.3849 29.7177 31.3834 29.7179 31.3834 29.7179ZM31.4445 29.3733L31.4533 29.705C31.4781 29.6985 31.508 29.6886 31.5409 29.674C31.654 29.6237 31.7165 29.5561 31.7261 29.545L31.5003 29.3644L31.4956 29.3606L31.443 29.3185L31.4443 29.3684L31.4445 29.3733ZM31.4062 29.2814L31.4345 29.3036L31.4225 28.9914C31.4176 28.9916 31.4122 28.992 31.4062 28.9928C31.3552 28.9991 31.2688 29.0277 31.1923 29.1139L31.4062 29.2814ZM31.4428 29.3101L31.5054 29.3591L31.5101 29.3628L31.7325 29.537C31.7626 29.4986 31.7937 29.4172 31.7814 29.3194C31.7813 29.3186 31.7812 29.3179 31.7811 29.3171C31.7763 29.281 31.7656 29.2426 31.7467 29.2033C31.7144 29.1363 31.6626 29.0786 31.5978 29.0395C31.5309 28.9992 31.4694 28.9901 31.4343 28.991L31.4428 29.3101Z" fill="#FFB685" stroke="black" stroke-width="2"/>
</svg>
