<svg width="40" height="41" viewBox="0 0 40 41" fill="none" xmlns="http://www.w3.org/2000/svg">
<circle cx="20" cy="20.4011" r="20" fill="#A18EE8"/>
<path d="M28.75 20.5964C28.75 20.5535 28.75 20.5046 28.748 20.448C28.7461 20.2898 28.7422 20.1121 28.7383 19.9226C28.7227 19.3777 28.6953 18.8347 28.6523 18.323C28.5938 17.6179 28.5078 17.03 28.3906 16.5886C28.267 16.128 28.0246 15.7079 27.6876 15.3703C27.3507 15.0327 26.9311 14.7894 26.4707 14.6648C25.918 14.5164 24.8359 14.4246 23.3125 14.3679C22.5879 14.3406 21.8125 14.323 21.0371 14.3132C20.7656 14.3093 20.5137 14.3074 20.2871 14.3054H19.7129C19.4863 14.3074 19.2344 14.3093 18.9629 14.3132C18.1875 14.323 17.4121 14.3406 16.6875 14.3679C15.1641 14.4265 14.0801 14.5183 13.5293 14.6648C13.0688 14.7891 12.649 15.0322 12.312 15.3699C11.975 15.7075 11.7327 16.1278 11.6094 16.5886C11.4902 17.03 11.4062 17.6179 11.3477 18.323C11.3047 18.8347 11.2773 19.3777 11.2617 19.9226C11.2559 20.1121 11.2539 20.2898 11.252 20.448C11.252 20.5046 11.25 20.5535 11.25 20.5964V20.7058C11.25 20.7488 11.25 20.7976 11.252 20.8542C11.2539 21.0125 11.2578 21.1902 11.2617 21.3796C11.2773 21.9246 11.3047 22.4675 11.3477 22.9792C11.4062 23.6843 11.4922 24.2722 11.6094 24.7136C11.8594 25.6492 12.5937 26.3875 13.5293 26.6375C14.0801 26.7859 15.1641 26.8777 16.6875 26.9343C17.4121 26.9617 18.1875 26.9792 18.9629 26.989C19.2344 26.9929 19.4863 26.9949 19.7129 26.9968H20.2871C20.5137 26.9949 20.7656 26.9929 21.0371 26.989C21.8125 26.9792 22.5879 26.9617 23.3125 26.9343C24.8359 26.8757 25.9199 26.7839 26.4707 26.6375C27.4062 26.3875 28.1406 25.6511 28.3906 24.7136C28.5098 24.2722 28.5938 23.6843 28.6523 22.9792C28.6953 22.4675 28.7227 21.9246 28.7383 21.3796C28.7441 21.1902 28.7461 21.0125 28.748 20.8542C28.748 20.7976 28.75 20.7488 28.75 20.7058V20.5964ZM27.3438 20.698C27.3438 20.739 27.3438 20.7839 27.3418 20.8367C27.3398 20.989 27.3359 21.157 27.332 21.3386C27.3184 21.8582 27.291 22.3777 27.25 22.8601C27.1973 23.489 27.123 24.0046 27.0312 24.3503C26.9102 24.8015 26.5547 25.1589 26.1055 25.2781C25.6953 25.3875 24.6621 25.4753 23.2578 25.5281C22.5469 25.5554 21.7812 25.573 21.0176 25.5828C20.75 25.5867 20.502 25.5886 20.2793 25.5886H19.7207L18.9824 25.5828C18.2188 25.573 17.4551 25.5554 16.7422 25.5281C15.3379 25.4734 14.3027 25.3875 13.8945 25.2781C13.4453 25.157 13.0898 24.8015 12.9688 24.3503C12.877 24.0046 12.8027 23.489 12.75 22.8601C12.709 22.3777 12.6836 21.8582 12.668 21.3386C12.6621 21.157 12.6602 20.9871 12.6582 20.8367C12.6582 20.7839 12.6562 20.7371 12.6562 20.698V20.6042C12.6562 20.5632 12.6563 20.5183 12.6582 20.4656C12.6602 20.3132 12.6641 20.1453 12.668 19.9636C12.6816 19.4441 12.709 18.9246 12.75 18.4421C12.8027 17.8132 12.877 17.2976 12.9688 16.9519C13.0898 16.5007 13.4453 16.1433 13.8945 16.0242C14.3047 15.9148 15.3379 15.8269 16.7422 15.7742C17.4531 15.7468 18.2188 15.7292 18.9824 15.7195C19.25 15.7156 19.498 15.7136 19.7207 15.7136H20.2793L21.0176 15.7195C21.7812 15.7292 22.5449 15.7468 23.2578 15.7742C24.6621 15.8289 25.6973 15.9148 26.1055 16.0242C26.5547 16.1453 26.9102 16.5007 27.0312 16.9519C27.123 17.2976 27.1973 17.8132 27.25 18.4421C27.291 18.9246 27.3164 19.4441 27.332 19.9636C27.3379 20.1453 27.3398 20.3152 27.3418 20.4656C27.3418 20.5183 27.3438 20.5652 27.3438 20.6042V20.698ZM18.2617 23.2683L22.793 20.6316L18.2617 18.0339V23.2683Z" fill="white"/>
</svg>
