<svg width="1440" height="425" viewBox="0 0 1440 425" fill="none" xmlns="http://www.w3.org/2000/svg" style="">
<path opacity="0.02" stroke="#1E2031" stroke-width="6" d="M145,720A574.927,574.927 0,1,1 1294.854,720A574.927,574.927 0,1,1 145,720" class="ipgzTJcM_0"></path>
<path opacity="0.02" stroke="#1E2031" stroke-width="6" d="M97.71600000000001,720A622.284,622.284 0,1,1 1342.284,720A622.284,622.284 0,1,1 97.71600000000001,720" class="ipgzTJcM_1"></path>
<path opacity="0.02" stroke="#1E2031" stroke-width="6" d="M50.35799999999995,720A669.642,669.642 0,1,1 1389.642,720A669.642,669.642 0,1,1 50.35799999999995,720" class="ipgzTJcM_2"></path>
<path opacity="0.02" stroke="#1E2031" stroke-width="6" d="M3,720A717,717 0,1,1 1437,720A717,717 0,1,1 3,720" class="ipgzTJcM_3"></path>
<path opacity="0.02" stroke="#1E2031" stroke-width="6" d="M192.43100000000004,720A527.569,527.569 0,1,1 1247.569,720A527.569,527.569 0,1,1 192.43100000000004,720" class="ipgzTJcM_4"></path>
<path opacity="0.02" stroke="#1E2031" stroke-width="6" d="M239.789,720A480.211,480.211 0,1,1 1200.211,720A480.211,480.211 0,1,1 239.789,720" class="ipgzTJcM_5"></path>
<path opacity="0.02" stroke="#1E2031" stroke-width="6" d="M287.147,720A432.853,432.853 0,1,1 1152.853,720A432.853,432.853 0,1,1 287.147,720" class="ipgzTJcM_6"></path>
<style data-made-with="vivus-instant">.ipgzTJcM_0{stroke-dasharray:3614 3616;stroke-dashoffset:3615;animation:ipgzTJcM_draw 3000ms linear 0ms forwards;}.ipgzTJcM_1{stroke-dasharray:3911 3913;stroke-dashoffset:3912;animation:ipgzTJcM_draw 3000ms linear 0ms forwards;}.ipgzTJcM_2{stroke-dasharray:4210 4212;stroke-dashoffset:4211;animation:ipgzTJcM_draw 3000ms linear 0ms forwards;}.ipgzTJcM_3{stroke-dasharray:4507 4509;stroke-dashoffset:4508;animation:ipgzTJcM_draw 3000ms linear 0ms forwards;}.ipgzTJcM_4{stroke-dasharray:3316 3318;stroke-dashoffset:3317;animation:ipgzTJcM_draw 3000ms linear 0ms forwards;}.ipgzTJcM_5{stroke-dasharray:3018 3020;stroke-dashoffset:3019;animation:ipgzTJcM_draw 3000ms linear 0ms forwards;}.ipgzTJcM_6{stroke-dasharray:2721 2723;stroke-dashoffset:2722;animation:ipgzTJcM_draw 3000ms linear 0ms forwards;}@keyframes ipgzTJcM_draw{100%{stroke-dashoffset:0;}}@keyframes ipgzTJcM_fade{0%{stroke-opacity:1;}94.44444444444444%{stroke-opacity:1;}100%{stroke-opacity:0;}}</style></svg>
