<svg width="41" height="41" viewBox="0 0 41 41" fill="none" xmlns="http://www.w3.org/2000/svg">
<path d="M19.6434 6.8525C19.5708 6.91108 19.4919 6.96626 19.3411 7.00205C19.2116 7.03276 19.0287 7.04946 18.7439 7.06036C18.1697 7.08233 17.1026 7.08233 15.0295 7.08233H15.0141C13.0501 7.08233 11.9786 7.08029 11.379 7.0604C11.0815 7.05053 10.8863 7.03598 10.752 7.01186C10.6136 6.98698 10.5165 6.9479 10.4333 6.87641C10.3536 6.81423 10.2875 6.72944 10.2388 6.65149C10.1873 6.56914 10.1423 6.47366 10.1179 6.38215L10.1178 6.38219L19.5443 5.82808L19.7401 5.67264C19.7402 5.6727 19.7402 5.67276 19.7403 5.67282C19.8855 5.85588 19.9605 6.07182 19.9451 6.28875C19.9296 6.5076 19.8232 6.70737 19.6434 6.8525ZM19.6434 6.8525L19.4862 6.65804L19.6432 6.85261C19.6433 6.85258 19.6433 6.85254 19.6434 6.8525ZM13.7172 0.637358L13.7171 0.637379C12.2047 0.927076 10.9953 1.55189 9.8849 2.60613C6.82803 5.53598 6.86823 10.4984 9.97365 13.38C11.2653 14.5757 12.836 15.2343 14.6557 15.3471C15.0751 15.3713 15.6535 15.3546 15.9321 15.3161L16.4696 15.2334L16.5532 15.2205L16.6274 15.2611L19.5148 16.838L19.5154 16.8384C20.3067 17.2735 21.0311 17.6627 21.5603 17.9398C21.7491 18.0387 21.9124 18.1229 22.0446 18.1897C22.0296 18.041 22.0095 17.8566 21.9852 17.6428C21.918 17.0522 21.8186 16.2424 21.7026 15.3554C21.7026 15.3553 21.7026 15.3553 21.7026 15.3552L21.2794 12.1351L21.2695 12.0593L21.3037 11.9908L21.6767 11.2446C21.6767 11.2445 21.6768 11.2444 21.6768 11.2443C22.1654 10.2587 22.3575 9.47186 22.4142 8.23267C22.4468 7.41031 22.4224 7.08277 22.2948 6.46819L22.2947 6.46796C21.7085 3.63248 19.6724 1.49811 16.8345 0.758251C16.4441 0.656731 15.8625 0.587351 15.2708 0.563837C14.6782 0.540293 14.1006 0.563745 13.7172 0.637358ZM15.5774 9.5576L15.5023 9.6552H15.3792H13.056H10.7329H10.6263L10.5525 9.57831L10.3579 9.37553C10.2794 9.30119 10.2138 9.21031 10.167 9.12443C10.1237 9.04504 10.0763 8.93357 10.0763 8.82423C10.0763 8.71186 10.1226 8.601 10.1678 8.5195C10.2155 8.43325 10.2812 8.34546 10.3579 8.27289L10.5525 8.07015L10.6263 7.99326H10.7329H13.056H15.3792H15.5023L15.5774 8.09086L15.742 8.30489C15.8032 8.38181 15.8564 8.46794 15.8953 8.54974C15.9305 8.62355 15.9694 8.72524 15.9694 8.82423C15.9694 8.92321 15.9305 9.02491 15.8953 9.09872C15.8564 9.18052 15.8032 9.26665 15.742 9.34356L15.5774 9.5576Z" fill="#FFB685" stroke="black" stroke-width="0.5"/>
<path d="M31.4835 0.877471L31.4833 0.877515C30.7797 1.09705 30.1746 1.77855 29.9732 2.68696C29.9541 2.78043 29.9333 2.88208 29.9064 2.96812C29.8781 3.05858 29.8274 3.18755 29.7153 3.29961C29.5996 3.41544 29.4675 3.46452 29.3726 3.49032C29.2929 3.51201 29.2 3.52672 29.1232 3.5389C29.1175 3.5398 29.1119 3.54069 29.1064 3.54157L29.1064 3.5417L29.095 3.54324C28.1528 3.67115 27.3154 4.40026 26.9746 5.49532L26.9746 5.49533L26.9738 5.49785C26.9601 5.54122 26.946 5.6021 26.9322 5.67939L27.1462 5.70523L27.6274 5.76333L27.6274 5.76331L27.632 5.7639C28.6352 5.89444 29.1015 5.83266 29.4149 5.67308L29.4149 5.67307L29.4181 5.67144C29.6513 5.55481 29.7909 5.45361 29.9508 5.26093C30.1298 5.04523 30.3352 4.71325 30.6725 4.10941C30.8302 3.81957 30.9843 3.56071 31.1069 3.375C31.1667 3.28451 31.2273 3.19872 31.282 3.13365C31.3052 3.1061 31.3493 3.05542 31.407 3.01172C31.4305 2.99389 31.5014 2.94155 31.606 2.91625C31.664 2.90223 31.7531 2.89151 31.856 2.91858C31.9438 2.94167 32.0199 2.98669 32.0799 3.04489C32.1107 3.07436 32.1309 3.10043 32.1371 3.10844L32.1379 3.10942C32.1519 3.12747 32.1641 3.14506 32.1734 3.15882C32.1923 3.1869 32.2125 3.21947 32.2323 3.25235C32.2726 3.31921 32.3231 3.40737 32.3794 3.5079C32.4926 3.71 32.6374 3.97665 32.7871 4.25531L32.7871 4.2553L32.7885 4.25802C33.0885 4.82483 33.4094 5.37636 33.5023 5.50407C33.7705 5.85562 34.2722 6.19827 34.8081 6.36268L34.8081 6.36267L34.8114 6.36371C35.1907 6.48295 35.5186 6.52233 35.8848 6.48536C36.2617 6.4473 36.701 6.32625 37.301 6.09258L37.3029 6.09186L38.2737 5.71837L38.6943 5.55654C38.6814 4.65072 38.6431 4.38723 38.5497 4.01856C38.3318 3.17738 38.0124 2.60863 37.3529 1.94885L37.3507 1.94668C36.736 1.3242 36.1574 0.999551 35.4648 0.856706L35.4641 0.856549C35.3524 0.833329 35.0779 0.810369 34.6801 0.796011C34.2975 0.782201 33.8381 0.7773 33.3825 0.780889C32.9267 0.784478 32.4798 0.796525 32.122 0.816081C31.9427 0.825878 31.7901 0.837336 31.6718 0.84999C31.6127 0.856318 31.5657 0.86258 31.5302 0.868435C31.497 0.873936 31.4835 0.877542 31.4835 0.877471ZM32.0517 3.77239C32.0517 3.77237 32.0508 3.77332 32.0489 3.77543C32.0508 3.7735 32.0517 3.77242 32.0517 3.77239Z" fill="black" stroke="black"/>
<path d="M34.456 12.7673L34.4556 12.7668C34.321 12.5858 34.1614 12.4356 33.9368 12.3907C33.7231 12.3479 33.5058 12.4127 33.2847 12.512C33.0692 12.6008 32.8741 12.6361 32.7155 12.6178L34.456 12.7673ZM34.456 12.7673C34.5248 12.8604 34.6024 12.9713 34.6159 13.1146C34.6284 13.2486 34.58 13.3763 34.5385 13.4859L34.5386 13.486M34.456 12.7673L34.5386 13.486M34.5386 13.486L34.5355 13.4934M34.5386 13.486L34.5355 13.4934M34.5355 13.4934C34.415 13.7827 34.1908 13.9331 33.8419 14.1033L33.8419 14.1034M34.5355 13.4934L33.8419 14.1034M33.8419 14.1034L33.8357 14.1062M33.8419 14.1034L33.8357 14.1062M33.8357 14.1062C33.1313 14.4265 32.3996 14.4269 31.6941 14.0973M33.8357 14.1062L31.6941 14.0973M31.6941 14.0973C31.3936 13.9597 31.1503 13.7997 31.0198 13.5911C30.9507 13.4807 30.9142 13.3581 30.9179 13.2272C30.9215 13.0995 30.9629 12.9796 31.0244 12.8695C31.138 12.6623 31.2945 12.4961 31.5061 12.4202C31.7204 12.3433 31.945 12.3754 32.1593 12.4724L32.0562 12.7001L31.6941 14.0973ZM31.5645 6.33598L31.5646 6.33603L31.5606 6.34144C30.9584 7.15968 29.9193 7.71488 28.8333 7.80347C28.833 7.8035 28.8327 7.80353 28.8324 7.80355L28.4979 7.83308V9.68737C28.4979 10.8812 28.517 11.5855 28.5908 12.1003C28.6626 12.601 28.7861 12.9223 29.0085 13.3474C29.532 14.3398 30.4806 15.1099 31.5961 15.4399L31.5962 15.4399L31.5973 15.4403C32.3166 15.6569 33.4071 15.626 34.1223 15.3774C35.5845 14.8581 36.6088 13.6988 36.9225 12.1927L36.9227 12.1916C36.9993 11.8316 37.0417 11.1196 37.0417 9.78697C37.0417 8.95818 37.0397 8.50201 37.0251 8.25529C36.8551 8.30351 36.6493 8.35091 36.4512 8.38996C36.1616 8.44706 35.8541 8.49324 35.6737 8.49324C35.3711 8.49324 34.9837 8.43009 34.6085 8.33518C34.2319 8.23993 33.8486 8.10791 33.554 7.96056L33.554 7.96057L33.5517 7.95937C32.8873 7.61832 32.1385 6.96786 31.7633 6.38699L31.7629 6.3865C31.7236 6.32532 31.6854 6.26848 31.6504 6.2187C31.6226 6.25485 31.5934 6.29447 31.5645 6.33598ZM37.2508 8.18178L37.2509 8.18189C37.2532 8.18096 37.2533 8.18071 37.2508 8.18178ZM31.2861 9.93282C31.5057 10.1477 31.6063 10.4273 31.5388 10.7025C31.4721 10.9742 31.256 11.1818 30.9665 11.2906C30.5252 11.4587 30.1252 11.256 29.9366 10.9416C29.7473 10.6259 29.7609 10.1778 30.1331 9.88195C30.3106 9.74004 30.5113 9.65408 30.7265 9.66379C30.9423 9.67352 31.1305 9.77757 31.2861 9.93282ZM35.4057 9.88137C35.6553 10.0788 35.7587 10.3706 35.7057 10.6509C35.6533 10.9285 35.4536 11.1679 35.1544 11.2882C35.0489 11.3321 34.936 11.3713 34.8072 11.3657C34.679 11.3601 34.5662 11.3116 34.4557 11.2541C34.2015 11.1241 34.0187 10.9158 33.9787 10.6524C33.9388 10.3894 34.0509 10.1355 34.2524 9.9339C34.4082 9.77805 34.5968 9.67355 34.8131 9.66379C35.0279 9.65409 35.2284 9.73981 35.4057 9.88137Z" fill="#EFF4EB" stroke="black" stroke-width="0.5"/>
<path d="M6.75082 15.9953L6.75098 15.9953C7.03963 15.9149 7.55503 15.8841 8.09748 15.9067C8.6384 15.9292 9.15825 16.0027 9.45493 16.1064C11.2875 16.7569 12.516 18.6674 12.367 20.6317C12.2382 22.2078 11.5355 23.9874 10.5189 25.2949L10.7162 25.4484M6.75082 15.9953L9.96951 26.4775L10.0106 26.2309C10.0113 26.231 10.012 26.2311 10.0127 26.2313C10.0185 26.2322 10.0241 26.2331 10.0295 26.234C10.0324 26.2191 10.0354 26.2025 10.0388 26.1838L10.0388 26.1838L10.0397 26.1795C10.0642 26.0566 10.1365 25.8997 10.2163 25.7551C10.2999 25.6034 10.4066 25.4386 10.5192 25.2945L10.7162 25.4484M6.75082 15.9953C6.05135 16.1897 5.40811 16.5795 4.82081 17.1749L4.81962 17.1761M6.75082 15.9953L4.81962 17.1761M10.7162 25.4484C10.5088 25.7139 10.318 26.0625 10.2848 26.2285L9.53807 15.8706C11.4796 16.5595 12.7739 18.5763 12.6163 20.6512C12.4835 22.2779 11.7617 24.1038 10.7162 25.4484ZM4.81962 17.1761C4.31482 17.6811 3.98388 18.1602 3.78492 18.6928C3.58561 19.2264 3.51212 19.8314 3.54842 20.5979L3.54844 20.5984M4.81962 17.1761L3.54844 20.5984M3.54844 20.5984C3.62056 22.1935 4.27142 23.8876 5.3463 25.27L5.34664 25.2704M3.54844 20.5984L5.34664 25.2704M5.34664 25.2704C5.45286 25.4077 5.55679 25.5624 5.63846 25.7045C5.71253 25.8334 5.78656 25.9826 5.80899 26.1048C5.8185 26.1469 5.82909 26.1864 5.8397 26.2203L5.34664 25.2704Z" fill="#FFB685" stroke="black" stroke-width="0.5"/>
<path d="M31.0034 17.5047H31.0034L31.0034 17.5064C31.016 17.8836 31.0305 18.077 31.0635 18.2195C31.0936 18.3496 31.1408 18.4443 31.2488 18.6202L31.2488 18.6202L31.2508 18.6235C31.3639 18.8145 31.6109 19.0779 31.7776 19.2024C31.9198 19.2982 32.0052 19.3427 32.1063 19.3711C32.2161 19.402 32.3586 19.4181 32.6238 19.4305L32.6238 19.4305L32.6275 19.4307C32.8974 19.4473 33.0383 19.447 33.1561 19.4259C33.2693 19.4055 33.3754 19.3634 33.5706 19.2658L33.5706 19.2658L33.5745 19.2639C33.9197 19.0987 34.1541 18.8748 34.3082 18.5666C34.4659 18.2513 34.5485 17.8297 34.5525 17.2566C34.5525 17.1605 34.5523 17.0838 34.551 17.0222C33.2956 17.3648 32.2459 17.365 30.9841 17.023L31.0034 17.5047Z" fill="#FFB685" stroke="black" stroke-width="0.5"/>
<path d="M25.3382 27.5804H32.7698H40.1945V23.9047C40.1945 22.2649 40.1883 21.2666 40.1687 20.6278C40.149 19.985 40.116 19.7264 40.0701 19.5534L40.0701 19.5534L40.0693 19.5504C39.8307 18.6034 39.2419 17.8897 38.3592 17.4478C38.0597 17.3022 37.9147 17.2386 37.7426 17.2012C37.5635 17.1623 37.3473 17.15 36.902 17.1332L36.2204 17.1149L36.1973 17.6811C36.1973 17.6812 36.1973 17.6814 36.1973 17.6815C36.1718 18.3621 36.119 18.6482 35.9173 19.0795C35.4639 20.0747 34.7268 20.7122 33.6808 21.0315L25.3382 27.5804ZM25.3382 27.5804L25.3616 23.6572L25.3861 19.5458L25.6193 19.0493C25.6194 19.0491 25.6195 19.0488 25.6196 19.0486C26.0404 18.1683 26.6787 17.5866 27.5482 17.286C27.8633 17.1811 28.1918 17.1331 28.7062 17.125H29.2341M25.3382 27.5804L29.2341 17.125M29.2341 17.125L29.3019 17.7725C29.3019 17.7725 29.3019 17.7725 29.3019 17.7725C29.3792 18.5112 29.5594 19.1204 29.8778 19.6214C30.1978 20.1249 30.6464 20.5018 31.2315 20.7922L31.2318 20.7924C32.0881 21.2163 32.8259 21.2925 33.6807 21.0315L29.2341 17.125Z" fill="#A18EE8" stroke="black" stroke-width="0.5"/>
<path d="M7.00589 27.7372L7.00589 27.7372L7.00495 27.7373C6.55289 27.8087 6.04197 27.9587 5.64604 28.1167C5.62988 28.1232 5.61398 28.1296 5.59833 28.136C5.62826 28.1369 5.6591 28.1378 5.69083 28.1387C6.22484 28.1531 7.00016 28.1614 7.96161 28.1614C8.81487 28.1614 9.59063 28.1531 10.1523 28.1397C10.1892 28.1388 10.2252 28.1379 10.2601 28.137C9.99915 28.0215 9.71805 27.917 9.51323 27.8663C9.21058 27.7967 8.71822 27.7418 8.22453 27.7162C7.72716 27.6904 7.2601 27.6961 7.00589 27.7372Z" fill="#EFF4EB" stroke="black" stroke-width="0.5"/>
<path d="M3.12704 29.932L3.12513 29.9325C2.20874 30.154 1.42095 30.8135 0.986027 31.738L0.98541 31.7393L0.743953 32.245L0.719405 36.2311L0.69606 40.0298H7.92015H15.1442L15.1209 36.1896L15.0963 32.162L14.8549 31.6563L14.8545 31.6555C14.4462 30.7925 13.7176 30.1867 12.7943 29.9482L12.7943 29.9482L12.7895 29.9468C12.6158 29.8982 12.3525 29.8648 11.6393 29.8471C10.9319 29.8296 9.80515 29.8275 7.9207 29.8316H7.92015C6.3316 29.8316 5.19518 29.8399 4.41927 29.8575C4.03114 29.8663 3.73537 29.8773 3.51931 29.8907C3.29629 29.9044 3.17624 29.9197 3.12704 29.932Z" fill="#FFB685" stroke="black" stroke-width="0.5"/>
</svg>
