<svg width="158" height="175" viewBox="0 0 158 175" fill="none" xmlns="http://www.w3.org/2000/svg">
<g opacity="0.1">
<path d="M-34.9013 51.8909C-34.3695 50.97 -33.823 50.0567 -33.2619 49.1512C-33.3228 50.2423 -33.9035 51.2834 -34.9013 51.8909Z" fill="#FFB685"/>
<path d="M-46.014 79.9841C-45.5144 77.8508 -44.9471 75.7338 -44.3131 73.6365C-43.0953 73.6029 -41.8981 74.2209 -41.2462 75.3501C-40.2994 76.9899 -40.8613 79.0868 -42.5011 80.0336C-43.6303 80.6855 -44.9761 80.6222 -46.014 79.9841Z" fill="#FFB685"/>
<path d="M-48.686 106.715C-48.7192 105.65 -48.7358 104.586 -48.7359 103.522C-48.1756 104.547 -48.1932 105.739 -48.686 106.715Z" fill="#FFB685"/>
<path d="M2.61114 192.458C1.69027 191.926 0.776892 191.38 -0.12859 190.819C0.962551 190.879 2.0036 191.46 2.61114 192.458Z" fill="#FFB685"/>
<path d="M30.7043 203.571C28.5711 203.071 26.454 202.504 24.3568 201.87C24.3231 200.652 24.9412 199.455 26.0703 198.803C27.7102 197.856 29.8071 198.418 30.7538 200.058C31.4058 201.187 31.3424 202.533 30.7043 203.571Z" fill="#FFB685"/>
<path d="M57.4349 206.243C56.3702 206.276 55.3059 206.292 54.2425 206.293C55.2676 205.732 56.4595 205.75 57.4349 206.243Z" fill="#FFB685"/>
<path d="M50.842 0.59376C51.9067 0.560546 52.971 0.54396 54.0344 0.543873C53.0093 1.1042 51.8174 1.08659 50.842 0.59376Z" fill="#FFB685"/>
<path d="M77.5725 3.26581C76.9345 4.30366 76.8711 5.64949 77.523 6.77865C78.4698 8.41851 80.5667 8.98037 82.2065 8.0336C83.3357 7.38167 83.9537 6.18446 83.9201 4.96663C81.8228 4.33265 79.7058 3.7654 77.5725 3.26581Z" fill="#FFB685"/>
<path d="M105.666 14.3785C106.273 15.3762 107.314 15.9569 108.405 16.0178C107.5 15.4567 106.587 14.9102 105.666 14.3785Z" fill="#FFB685"/>
<path d="M156.963 100.122C156.47 101.097 156.452 102.289 157.013 103.314C157.013 102.251 156.996 101.186 156.963 100.122Z" fill="#FFB685"/>
<path d="M154.291 126.852C153.253 126.214 151.907 126.151 150.778 126.803C149.138 127.75 148.576 129.846 149.523 131.486C150.175 132.615 151.372 133.234 152.59 133.2C153.224 131.103 153.791 128.986 154.291 126.852Z" fill="#FFB685"/>
<path d="M143.178 154.945C142.18 155.553 141.6 156.594 141.539 157.685C142.1 156.78 142.646 155.866 143.178 154.945Z" fill="#FFB685"/>
<path d="M-12.3165 173.458C-10.6766 172.511 -8.57975 173.073 -7.63297 174.713C-6.6862 176.353 -7.24806 178.449 -8.88792 179.396C-10.5278 180.343 -12.6247 179.781 -13.5714 178.141C-14.5182 176.501 -13.9563 174.405 -12.3165 173.458Z" fill="#FFB685"/>
<path d="M-22.6022 155.642C-20.9623 154.696 -18.8655 155.257 -17.9187 156.897C-16.9719 158.537 -17.5338 160.634 -19.1736 161.581C-20.8135 162.528 -22.9104 161.966 -23.8571 160.326C-24.8039 158.686 -24.2421 156.589 -22.6022 155.642Z" fill="#FFB685"/>
<path d="M-32.8879 137.827C-31.2481 136.88 -29.1512 137.442 -28.2044 139.082C-27.2576 140.722 -27.8195 142.819 -29.4593 143.765C-31.0992 144.712 -33.1961 144.15 -34.1429 142.511C-35.0896 140.871 -34.5278 138.774 -32.8879 137.827Z" fill="#FFB685"/>
<path d="M-43.1736 120.012C-41.5338 119.065 -39.4369 119.627 -38.4901 121.267C-37.5433 122.906 -38.1052 125.003 -39.7451 125.95C-41.3849 126.897 -43.4818 126.335 -44.4286 124.695C-45.3754 123.055 -44.8135 120.958 -43.1736 120.012Z" fill="#FFB685"/>
<path d="M15.7846 180.987C17.4245 180.041 19.5213 180.603 20.4681 182.242C21.4149 183.882 20.853 185.979 19.2132 186.926C17.5733 187.873 15.4764 187.311 14.5297 185.671C13.5829 184.031 14.1447 181.934 15.7846 180.987Z" fill="#FFB685"/>
<path d="M5.49889 163.172C7.13875 162.225 9.23563 162.787 10.1824 164.427C11.1292 166.067 10.5673 168.164 8.92746 169.111C7.2876 170.057 5.19072 169.495 4.24395 167.856C3.29717 166.216 3.85903 164.119 5.49889 163.172Z" fill="#FFB685"/>
<path d="M-4.78683 145.357C-3.14697 144.41 -1.05008 144.972 -0.103309 146.612C0.843465 148.251 0.281608 150.348 -1.35825 151.295C-2.99811 152.242 -5.095 151.68 -6.04177 150.04C-6.98854 148.4 -6.42669 146.303 -4.78683 145.357Z" fill="#FFB685"/>
<path d="M-15.0725 127.541C-13.4327 126.595 -11.3358 127.156 -10.389 128.796C-9.44225 130.436 -10.0041 132.533 -11.644 133.48C-13.2838 134.427 -15.3807 133.865 -16.3275 132.225C-17.2743 130.585 -16.7124 128.488 -15.0725 127.541Z" fill="#FFB685"/>
<path d="M-25.3583 109.726C-23.7184 108.779 -21.6215 109.341 -20.6747 110.981C-19.728 112.621 -20.2898 114.718 -21.9297 115.664C-23.5695 116.611 -25.6664 116.049 -26.6132 114.409C-27.56 112.77 -26.9981 110.673 -25.3583 109.726Z" fill="#FFB685"/>
<path d="M-35.644 91.9105C-34.0041 90.9637 -31.9072 91.5256 -30.9605 93.1655C-30.0137 94.8053 -30.5755 96.9022 -32.2154 97.849C-33.8553 98.7958 -35.9521 98.2339 -36.8989 96.594C-37.8457 94.9542 -37.2838 92.8573 -35.644 91.9105Z" fill="#FFB685"/>
<path d="M43.8857 188.517C45.5256 187.57 47.6224 188.132 48.5692 189.772C49.516 191.412 48.9541 193.509 47.3143 194.456C45.6744 195.402 43.5775 194.84 42.6308 193.201C41.684 191.561 42.2458 189.464 43.8857 188.517Z" fill="#FFB685"/>
<path d="M33.6 170.702C35.2398 169.755 37.3367 170.317 38.2835 171.957C39.2303 173.597 38.6684 175.693 37.0286 176.64C35.3887 177.587 33.2918 177.025 32.345 175.385C31.3983 173.745 31.9601 171.648 33.6 170.702Z" fill="#FFB685"/>
<path d="M23.3143 152.886C24.9541 151.94 27.051 152.501 27.9978 154.141C28.9446 155.781 28.3827 157.878 26.7428 158.825C25.103 159.772 23.0061 159.21 22.0593 157.57C21.1126 155.93 21.6744 153.833 23.3143 152.886Z" fill="#FFB685"/>
<path d="M13.0286 135.071C14.6684 134.124 16.7653 134.686 17.7121 136.326C18.6588 137.966 18.097 140.063 16.4571 141.009C14.8173 141.956 12.7204 141.394 11.7736 139.754C10.8268 138.115 11.3887 136.018 13.0286 135.071Z" fill="#FFB685"/>
<path d="M2.74284 117.256C4.3827 116.309 6.47958 116.871 7.42636 118.511C8.37313 120.15 7.81127 122.247 6.17141 123.194C4.53155 124.141 2.43467 123.579 1.4879 121.939C0.541122 120.299 1.10298 118.202 2.74284 117.256Z" fill="#FFB685"/>
<path d="M-7.54288 99.4402C-5.90302 98.4934 -3.80613 99.0553 -2.85936 100.695C-1.91259 102.335 -2.47444 104.432 -4.1143 105.379C-5.75417 106.325 -7.85105 105.764 -8.79782 104.124C-9.74459 102.484 -9.18274 100.387 -7.54288 99.4402Z" fill="#FFB685"/>
<path d="M-17.8286 81.6248C-16.1887 80.678 -14.0918 81.2399 -13.1451 82.8798C-12.1983 84.5196 -12.7602 86.6165 -14.4 87.5633C-16.0399 88.51 -18.1368 87.9482 -19.0835 86.3083C-20.0303 84.6685 -19.4685 82.5716 -17.8286 81.6248Z" fill="#FFB685"/>
<path d="M-28.1143 63.8094C-26.4744 62.8627 -24.3776 63.4245 -23.4308 65.0644C-22.484 66.7042 -23.0459 68.8011 -24.6857 69.7479C-26.3256 70.6947 -28.4225 70.1328 -29.3693 68.4929C-30.316 66.8531 -29.7542 64.7562 -28.1143 63.8094Z" fill="#FFB685"/>
<path d="M71.9868 196.047C73.6267 195.1 75.7235 195.662 76.6703 197.302C77.6171 198.942 77.0552 201.038 75.4154 201.985C73.7755 202.932 71.6786 202.37 70.7319 200.73C69.7851 199.09 70.3469 196.994 71.9868 196.047Z" fill="#FFB685"/>
<path d="M61.7011 178.231C63.3409 177.285 65.4378 177.846 66.3846 179.486C67.3314 181.126 66.7695 183.223 65.1297 184.17C63.4898 185.117 61.3929 184.555 60.4461 182.915C59.4994 181.275 60.0612 179.178 61.7011 178.231Z" fill="#FFB685"/>
<path d="M51.4154 160.416C53.0552 159.469 55.1521 160.031 56.0989 161.671C57.0457 163.311 56.4838 165.408 54.8439 166.354C53.2041 167.301 51.1072 166.739 50.1604 165.1C49.2136 163.46 49.7755 161.363 51.4154 160.416Z" fill="#FFB685"/>
<path d="M41.1297 142.601C42.7695 141.654 44.8664 142.216 45.8132 143.856C46.7599 145.495 46.1981 147.592 44.5582 148.539C42.9184 149.486 40.8215 148.924 39.8747 147.284C38.9279 145.644 39.4898 143.547 41.1297 142.601Z" fill="#FFB685"/>
<path d="M30.8439 124.785C32.4838 123.838 34.5807 124.4 35.5274 126.04C36.4742 127.68 35.9124 129.777 34.2725 130.724C32.6326 131.67 30.5358 131.109 29.589 129.469C28.6422 127.829 29.2041 125.732 30.8439 124.785Z" fill="#FFB685"/>
<path d="M20.5582 106.97C22.1981 106.023 24.295 106.585 25.2417 108.225C26.1885 109.865 25.6267 111.962 23.9868 112.908C22.3469 113.855 20.25 113.293 19.3033 111.653C18.3565 110.014 18.9184 107.917 20.5582 106.97Z" fill="#FFB685"/>
<path d="M10.2725 89.1545C11.9124 88.2077 14.0092 88.7696 14.956 90.4094C15.9028 92.0493 15.3409 94.1462 13.7011 95.0929C12.0612 96.0397 9.96433 95.4778 9.01756 93.838C8.07079 92.1981 8.63264 90.1012 10.2725 89.1545Z" fill="#FFB685"/>
<path d="M-0.0132116 71.3391C1.62665 70.3923 3.72353 70.9542 4.6703 72.594C5.61707 74.2339 5.05522 76.3308 3.41536 77.2776C1.7755 78.2243 -0.321387 77.6625 -1.26816 76.0226C-2.21493 74.3828 -1.65307 72.2859 -0.0132116 71.3391Z" fill="#FFB685"/>
<path d="M-10.2989 53.5237C-8.65907 52.5769 -6.56219 53.1388 -5.61541 54.7787C-4.66864 56.4185 -5.23049 58.5154 -6.87035 59.4622C-8.51021 60.4089 -10.6071 59.8471 -11.5539 58.2072C-12.5006 56.5674 -11.9388 54.4705 -10.2989 53.5237Z" fill="#FFB685"/>
<path d="M-20.5846 35.7083C-18.9448 34.7616 -16.8479 35.3234 -15.9011 36.9633C-14.9544 38.6031 -15.5162 40.7 -17.1561 41.6468C-18.7959 42.5936 -20.8928 42.0317 -21.8396 40.3919C-22.7864 38.752 -22.2245 36.6551 -20.5846 35.7083Z" fill="#FFB685"/>
<path d="M89.8022 185.761C91.442 184.814 93.5389 185.376 94.4857 187.016C95.4325 188.656 94.8706 190.753 93.2307 191.699C91.5909 192.646 89.494 192.084 88.5472 190.445C87.6005 188.805 88.1623 186.708 89.8022 185.761Z" fill="#FFB685"/>
<path d="M79.5165 167.946C81.1563 166.999 83.2532 167.561 84.2 169.201C85.1468 170.84 84.5849 172.937 82.945 173.884C81.3052 174.831 79.2083 174.269 78.2615 172.629C77.3147 170.989 77.8766 168.892 79.5165 167.946Z" fill="#FFB685"/>
<path d="M69.2307 150.13C70.8706 149.183 72.9675 149.745 73.9143 151.385C74.861 153.025 74.2992 155.122 72.6593 156.069C71.0195 157.016 68.9226 156.454 67.9758 154.814C67.029 153.174 67.5909 151.077 69.2307 150.13Z" fill="#FFB685"/>
<path d="M58.945 132.315C60.5849 131.368 62.6818 131.93 63.6285 133.57C64.5753 135.21 64.0135 137.307 62.3736 138.253C60.7337 139.2 58.6369 138.638 57.6901 136.998C56.7433 135.359 57.3052 133.262 58.945 132.315Z" fill="#FFB685"/>
<path d="M48.6593 114.5C50.2992 113.553 52.3961 114.115 53.3428 115.754C54.2896 117.394 53.7277 119.491 52.0879 120.438C50.448 121.385 48.3511 120.823 47.4044 119.183C46.4576 117.543 47.0195 115.446 48.6593 114.5Z" fill="#FFB685"/>
<path d="M38.3736 96.6841C40.0135 95.7374 42.1103 96.2992 43.0571 97.9391C44.0039 99.5789 43.442 101.676 41.8022 102.623C40.1623 103.569 38.0654 103.008 37.1187 101.368C36.1719 99.7278 36.7337 97.6309 38.3736 96.6841Z" fill="#FFB685"/>
<path d="M28.0879 78.8688C29.7277 77.922 31.8246 78.4838 32.7714 80.1237C33.7182 81.7636 33.1563 83.8604 31.5165 84.8072C29.8766 85.754 27.7797 85.1921 26.8329 83.5523C25.8862 81.9124 26.448 79.8155 28.0879 78.8688Z" fill="#FFB685"/>
<path d="M17.8022 61.0534C19.442 60.1066 21.5389 60.6685 22.4857 62.3083C23.4325 63.9482 22.8706 66.0451 21.2307 66.9918C19.5909 67.9386 17.494 67.3767 16.5472 65.7369C15.6005 64.097 16.1623 62.0001 17.8022 61.0534Z" fill="#FFB685"/>
<path d="M7.51645 43.238C9.15631 42.2912 11.2532 42.8531 12.2 44.4929C13.1467 46.1328 12.5849 48.2297 10.945 49.1765C9.30517 50.1232 7.20828 49.5614 6.26151 47.9215C5.31473 46.2816 5.87659 44.1848 7.51645 43.238Z" fill="#FFB685"/>
<path d="M-2.76926 25.4226C-1.1294 24.4758 0.967478 25.0377 1.91426 26.6776C2.86103 28.3174 2.29917 30.4143 0.659311 31.3611C-0.980549 32.3079 -3.07744 31.746 -4.02421 30.1061C-4.97099 28.4663 -4.40912 26.3694 -2.76926 25.4226Z" fill="#FFB685"/>
<path d="M107.618 175.475C109.257 174.529 111.354 175.09 112.301 176.73C113.248 178.37 112.686 180.467 111.046 181.414C109.406 182.361 107.309 181.799 106.363 180.159C105.416 178.519 105.978 176.422 107.618 175.475Z" fill="#FFB685"/>
<path d="M97.3318 157.66C98.9717 156.713 101.069 157.275 102.015 158.915C102.962 160.555 102.4 162.652 100.76 163.598C99.1206 164.545 97.0237 163.983 96.0769 162.343C95.1301 160.704 95.692 158.607 97.3318 157.66Z" fill="#FFB685"/>
<path d="M87.0461 139.845C88.686 138.898 90.7829 139.46 91.7296 141.1C92.6764 142.739 92.1146 144.836 90.4747 145.783C88.8348 146.73 86.738 146.168 85.7912 144.528C84.8444 142.888 85.4063 140.791 87.0461 139.845Z" fill="#FFB685"/>
<path d="M76.7604 122.029C78.4003 121.082 80.4972 121.644 81.4439 123.284C82.3907 124.924 81.8288 127.021 80.189 127.968C78.5491 128.914 76.4522 128.353 75.5055 126.713C74.5587 125.073 75.1205 122.976 76.7604 122.029Z" fill="#FFB685"/>
<path d="M66.4747 104.214C68.1146 103.267 70.2114 103.829 71.1582 105.469C72.105 107.109 71.5431 109.205 69.9033 110.152C68.2634 111.099 66.1665 110.537 65.2198 108.897C64.273 107.257 64.8348 105.161 66.4747 104.214Z" fill="#FFB685"/>
<path d="M56.189 86.3984C57.8288 85.4516 59.9257 86.0135 60.8725 87.6534C61.8193 89.2932 61.2574 91.3901 59.6175 92.3369C57.9777 93.2837 55.8808 92.7218 54.934 91.0819C53.9873 89.4421 54.5491 87.3452 56.189 86.3984Z" fill="#FFB685"/>
<path d="M45.9033 68.583C47.5431 67.6363 49.64 68.1981 50.5868 69.838C51.5336 71.4778 50.9717 73.5747 49.3318 74.5215C47.692 75.4683 45.5951 74.9064 44.6483 73.2666C43.7015 71.6267 44.2634 69.5298 45.9033 68.583Z" fill="#FFB685"/>
<path d="M35.6175 50.7677C37.2574 49.8209 39.3543 50.3827 40.3011 52.0226C41.2478 53.6625 40.686 55.7593 39.0461 56.7061C37.4063 57.6529 35.3094 57.091 34.3626 55.4512C33.4158 53.8113 33.9777 51.7144 35.6175 50.7677Z" fill="#FFB685"/>
<path d="M25.3318 32.9523C26.9717 32.0055 29.0686 32.5674 30.0153 34.2072C30.9621 35.8471 30.4003 37.944 28.7604 38.8907C27.1205 39.8375 25.0237 39.2756 24.0769 37.6358C23.1301 35.9959 23.692 33.8991 25.3318 32.9523Z" fill="#FFB685"/>
<path d="M15.0461 15.1369C16.686 14.1901 18.7829 14.752 19.7296 16.3918C20.6764 18.0317 20.1145 20.1286 18.4747 21.0754C16.8348 22.0221 14.7379 21.4603 13.7912 19.8204C12.8444 18.1806 13.4063 16.0837 15.0461 15.1369Z" fill="#FFB685"/>
<path d="M125.433 165.19C127.073 164.243 129.17 164.805 130.116 166.445C131.063 168.084 130.501 170.181 128.862 171.128C127.222 172.075 125.125 171.513 124.178 169.873C123.231 168.233 123.793 166.136 125.433 165.19Z" fill="#FFB685"/>
<path d="M115.147 147.374C116.787 146.427 118.884 146.989 119.831 148.629C120.778 150.269 120.216 152.366 118.576 153.313C116.936 154.259 114.839 153.698 113.892 152.058C112.946 150.418 113.507 148.321 115.147 147.374Z" fill="#FFB685"/>
<path d="M104.862 129.559C106.501 128.612 108.598 129.174 109.545 130.814C110.492 132.454 109.93 134.551 108.29 135.497C106.65 136.444 104.553 135.882 103.607 134.242C102.66 132.602 103.222 130.506 104.862 129.559Z" fill="#FFB685"/>
<path d="M94.5758 111.743C96.2156 110.797 98.3125 111.359 99.2593 112.998C100.206 114.638 99.6442 116.735 98.0044 117.682C96.3645 118.629 94.2676 118.067 93.3208 116.427C92.3741 114.787 92.9359 112.69 94.5758 111.743Z" fill="#FFB685"/>
<path d="M84.2901 93.9281C85.9299 92.9813 88.0268 93.5432 88.9736 95.183C89.9204 96.8229 89.3585 98.9198 87.7186 99.8665C86.0788 100.813 83.9819 100.251 83.0351 98.6116C82.0884 96.9717 82.6502 94.8749 84.2901 93.9281Z" fill="#FFB685"/>
<path d="M74.0044 76.1127C75.6442 75.1659 77.7411 75.7278 78.6879 77.3676C79.6347 79.0075 79.0728 81.1044 77.4329 82.0512C75.7931 82.9979 73.6962 82.4361 72.7494 80.7962C71.8026 79.1564 72.3645 77.0595 74.0044 76.1127Z" fill="#FFB685"/>
<path d="M63.7186 58.2973C65.3585 57.3505 67.4554 57.9124 68.4022 59.5523C69.3489 61.1921 68.7871 63.289 67.1472 64.2358C65.5074 65.1826 63.4105 64.6207 62.4637 62.9808C61.5169 61.341 62.0788 59.2441 63.7186 58.2973Z" fill="#FFB685"/>
<path d="M53.4329 40.4819C55.0728 39.5352 57.1697 40.097 58.1164 41.7369C59.0632 43.3767 58.5014 45.4736 56.8615 46.4204C55.2216 47.3672 53.1248 46.8053 52.178 45.1655C51.2312 43.5256 51.7931 41.4287 53.4329 40.4819Z" fill="#FFB685"/>
<path d="M43.1472 22.6666C44.7871 21.7198 46.884 22.2816 47.8307 23.9215C48.7775 25.5614 48.2156 27.6583 46.5758 28.605C44.9359 29.5518 42.839 28.9899 41.8923 27.3501C40.9455 25.7102 41.5074 23.6133 43.1472 22.6666Z" fill="#FFB685"/>
<path d="M32.8615 4.85118C34.5014 3.90442 36.5982 4.46626 37.545 6.10613C38.4918 7.74598 37.9299 9.84288 36.2901 10.7896C34.6502 11.7364 32.5533 11.1746 31.6066 9.5347C30.6598 7.89484 31.2216 5.79796 32.8615 4.85118Z" fill="#FFB685"/>
<path d="M132.963 137.089C134.602 136.142 136.699 136.704 137.646 138.343C138.593 139.983 138.031 142.08 136.391 143.027C134.751 143.974 132.654 143.412 131.708 141.772C130.761 140.132 131.323 138.035 132.963 137.089Z" fill="#FFB685"/>
<path d="M122.677 119.273C124.317 118.326 126.414 118.888 127.36 120.528C128.307 122.168 127.745 124.265 126.105 125.212C124.466 126.158 122.369 125.597 121.422 123.957C120.475 122.317 121.037 120.22 122.677 119.273Z" fill="#FFB685"/>
<path d="M112.391 101.458C114.031 100.511 116.128 101.073 117.075 102.713C118.021 104.353 117.46 106.449 115.82 107.396C114.18 108.343 112.083 107.781 111.136 106.141C110.189 104.501 110.751 102.405 112.391 101.458Z" fill="#FFB685"/>
<path d="M102.105 83.6424C103.745 82.6956 105.842 83.2574 106.789 84.8973C107.736 86.5372 107.174 88.6341 105.534 89.5808C103.894 90.5276 101.797 89.9657 100.851 88.3259C99.9037 86.686 100.466 84.5891 102.105 83.6424Z" fill="#FFB685"/>
<path d="M91.8197 65.827C93.4596 64.8802 95.5565 65.4421 96.5033 67.0819C97.45 68.7218 96.8882 70.8187 95.2483 71.7654C93.6085 72.7122 91.5116 72.1504 90.5648 70.5105C89.618 68.8706 90.1799 66.7738 91.8197 65.827Z" fill="#FFB685"/>
<path d="M81.534 48.0116C83.1739 47.0648 85.2708 47.6267 86.2175 49.2665C87.1643 50.9064 86.6024 53.0033 84.9626 53.9501C83.3227 54.8968 81.2258 54.335 80.2791 52.6951C79.3323 51.0553 79.8942 48.9584 81.534 48.0116Z" fill="#FFB685"/>
<path d="M71.2483 30.1962C72.8882 29.2495 74.9851 29.8113 75.9318 31.4512C76.8786 33.091 76.3167 35.1879 74.6769 36.1347C73.037 37.0815 70.9401 36.5196 69.9934 34.8797C69.0466 33.2399 69.6085 31.143 71.2483 30.1962Z" fill="#FFB685"/>
<path d="M60.9626 12.3808C62.6024 11.4341 64.6993 11.9959 65.6461 13.6358C66.5929 15.2756 66.031 17.3725 64.3912 18.3193C62.7513 19.2661 60.6544 18.7042 59.7076 17.0644C58.7609 15.4245 59.3227 13.3276 60.9626 12.3808Z" fill="#FFB685"/>
<path d="M140.492 108.987C142.132 108.041 144.229 108.602 145.176 110.242C146.123 111.882 145.561 113.979 143.921 114.926C142.281 115.873 140.184 115.311 139.237 113.671C138.291 112.031 138.852 109.934 140.492 108.987Z" fill="#FFB685"/>
<path d="M130.207 91.172C131.846 90.2253 133.943 90.7871 134.89 92.427C135.837 94.0668 135.275 96.1637 133.635 97.1105C131.995 98.0573 129.898 97.4954 128.952 95.8555C128.005 94.2157 128.567 92.1188 130.207 91.172Z" fill="#FFB685"/>
<path d="M119.921 73.3567C121.561 72.4099 123.658 72.9717 124.604 74.6116C125.551 76.2515 124.989 78.3483 123.349 79.2951C121.71 80.2419 119.613 79.68 118.666 78.0402C117.719 76.4003 118.281 74.3034 119.921 73.3567Z" fill="#FFB685"/>
<path d="M109.635 55.5413C111.275 54.5945 113.372 55.1564 114.319 56.7962C115.265 58.4361 114.704 60.533 113.064 61.4797C111.424 62.4265 109.327 61.8647 108.38 60.2248C107.433 58.5849 107.995 56.488 109.635 55.5413Z" fill="#FFB685"/>
<path d="M99.3494 37.7259C100.989 36.7791 103.086 37.341 104.033 38.9808C104.98 40.6207 104.418 42.7176 102.778 43.6644C101.138 44.6111 99.0412 44.0493 98.0945 42.4094C97.1477 40.7696 97.7095 38.6727 99.3494 37.7259Z" fill="#FFB685"/>
<path d="M89.0637 19.9105C90.7035 18.9637 92.8004 19.5256 93.7472 21.1655C94.694 22.8053 94.1321 24.9022 92.4923 25.849C90.8524 26.7957 88.7555 26.2339 87.8087 24.594C86.862 22.9542 87.4238 20.8573 89.0637 19.9105Z" fill="#FFB685"/>
<path d="M148.022 80.8863C149.662 79.9395 151.759 80.5014 152.705 82.1413C153.652 83.7811 153.09 85.878 151.45 86.8248C149.811 87.7715 147.714 87.2097 146.767 85.5698C145.82 83.93 146.382 81.8331 148.022 80.8863Z" fill="#FFB685"/>
<path d="M137.736 63.0709C139.376 62.1242 141.473 62.686 142.42 64.3259C143.366 65.9657 142.805 68.0626 141.165 69.0094C139.525 69.9562 137.428 69.3943 136.481 67.7545C135.534 66.1146 136.096 64.0177 137.736 63.0709Z" fill="#FFB685"/>
<path d="M127.45 45.2556C129.09 44.3088 131.187 44.8706 132.134 46.5105C133.081 48.1504 132.519 50.2472 130.879 51.194C129.239 52.1408 127.142 51.5789 126.196 49.9391C125.249 48.2992 125.811 46.2023 127.45 45.2556Z" fill="#FFB685"/>
<path d="M117.165 27.4402C118.805 26.4934 120.902 27.0553 121.848 28.6951C122.795 30.335 122.233 32.4319 120.593 33.3786C118.953 34.3254 116.857 33.7636 115.91 32.1237C114.963 30.4838 115.525 28.3869 117.165 27.4402Z" fill="#FFB685"/>
</g>
</svg>
