<svg width="40" height="41" viewBox="0 0 40 41" fill="none" xmlns="http://www.w3.org/2000/svg">
<circle cx="20" cy="20.4011" r="20" fill="#A18EE8"/>
<path d="M16.4993 12.3181H23.4993C26.166 12.3181 28.3327 14.4848 28.3327 17.1514V24.1514C28.3327 25.4333 27.8235 26.6627 26.917 27.5691C26.0106 28.4756 24.7812 28.9848 23.4993 28.9848H16.4993C13.8327 28.9848 11.666 26.8181 11.666 24.1514V17.1514C11.666 15.8696 12.1752 14.6402 13.0817 13.7338C13.9881 12.8273 15.2175 12.3181 16.4993 12.3181ZM16.3327 13.9848C15.537 13.9848 14.774 14.3009 14.2114 14.8635C13.6488 15.4261 13.3327 16.1891 13.3327 16.9848V24.3181C13.3327 25.9764 14.6743 27.3181 16.3327 27.3181H23.666C24.4617 27.3181 25.2247 27.002 25.7873 26.4394C26.3499 25.8768 26.666 25.1138 26.666 24.3181V16.9848C26.666 15.3264 25.3243 13.9848 23.666 13.9848H16.3327ZM24.3743 15.2348C24.6506 15.2348 24.9156 15.3445 25.1109 15.5399C25.3063 15.7352 25.416 16.0002 25.416 16.2764C25.416 16.5527 25.3063 16.8177 25.1109 17.013C24.9156 17.2084 24.6506 17.3181 24.3743 17.3181C24.0981 17.3181 23.8331 17.2084 23.6378 17.013C23.4424 16.8177 23.3327 16.5527 23.3327 16.2764C23.3327 16.0002 23.4424 15.7352 23.6378 15.5399C23.8331 15.3445 24.0981 15.2348 24.3743 15.2348ZM19.9993 16.4848C21.1044 16.4848 22.1642 16.9238 22.9456 17.7052C23.727 18.4866 24.166 19.5464 24.166 20.6514C24.166 21.7565 23.727 22.8163 22.9456 23.5977C22.1642 24.3791 21.1044 24.8181 19.9993 24.8181C18.8943 24.8181 17.8345 24.3791 17.0531 23.5977C16.2717 22.8163 15.8327 21.7565 15.8327 20.6514C15.8327 19.5464 16.2717 18.4866 17.0531 17.7052C17.8345 16.9238 18.8943 16.4848 19.9993 16.4848ZM19.9993 18.1514C19.3363 18.1514 18.7004 18.4148 18.2316 18.8837C17.7627 19.3525 17.4993 19.9884 17.4993 20.6514C17.4993 21.3145 17.7627 21.9504 18.2316 22.4192C18.7004 22.8881 19.3363 23.1514 19.9993 23.1514C20.6624 23.1514 21.2983 22.8881 21.7671 22.4192C22.236 21.9504 22.4993 21.3145 22.4993 20.6514C22.4993 19.9884 22.236 19.3525 21.7671 18.8837C21.2983 18.4148 20.6624 18.1514 19.9993 18.1514Z" fill="white"/>
</svg>
