<svg width="98" height="98" viewBox="0 0 98 98" fill="none" xmlns="http://www.w3.org/2000/svg">
<path d="M30.216 0.0649414H27.538V2.74294H30.216V0.0649414Z" fill="black"/>
<path d="M43.606 0.0649414H40.928V2.74294H43.606V0.0649414Z" fill="black"/>
<path d="M62.351 0.0649414H59.673V2.74294H62.351V0.0649414Z" fill="black"/>
<path d="M38.25 5.41994V2.74194H35.572V0.0649414H32.894V2.74194V5.41994V8.09794H35.572V5.41994H38.25Z" fill="black"/>
<path d="M65.028 2.74194H62.35V5.41994H65.028V2.74194Z" fill="black"/>
<path d="M70.384 8.09794V10.7759H73.062V8.09794V5.41994V2.74194H70.384V5.41994V8.09794Z" fill="black"/>
<path d="M27.538 8.09792V5.41992H24.86V8.09792V10.7759H27.538V8.09792Z" fill="black"/>
<path d="M70.384 0.0649414H67.706V2.74294H70.384V0.0649414Z" fill="black"/>
<path d="M65.028 10.7759H67.706V8.09792V5.41992H65.028V8.09792V10.7759Z" fill="black"/>
<path d="M32.894 10.7759H30.216V13.4539H32.894V10.7759Z" fill="black"/>
<path d="M43.606 10.7759H40.928V13.4539H43.606V10.7759Z" fill="black"/>
<path d="M30.216 13.4539H27.538V16.1319H30.216V13.4539Z" fill="black"/>
<path d="M54.317 13.4539H51.639V16.1319H54.317V13.4539Z" fill="black"/>
<path d="M27.538 16.132H24.86V18.81H27.538V16.132Z" fill="black"/>
<path d="M56.995 16.132H54.317V18.81H56.995V16.132Z" fill="black"/>
<path d="M35.572 18.8089V16.1319V13.4539H32.894V16.1319V18.8089V21.4869H35.572V18.8089Z" fill="black"/>
<path d="M40.928 18.8089V16.1319V13.4539H38.25V16.1319V18.8089V21.4869H40.928V18.8089Z" fill="black"/>
<path d="M54.317 18.809H51.639V21.487V24.165H54.317V21.487V18.809Z" fill="black"/>
<path d="M22.183 24.1649H19.505V26.8429H22.183V24.1649Z" fill="black"/>
<path d="M54.317 26.8429V29.5209H56.995V26.8429V24.1649H54.317V26.8429Z" fill="black"/>
<path d="M75.74 24.1649H73.062V21.4869H70.384V24.1649H67.706V26.8429H70.384V29.5209H73.062H75.74V26.8429V24.1649Z" fill="black"/>
<path d="M3.43801 26.8429H0.76001V29.5209H3.43801V26.8429Z" fill="black"/>
<path d="M14.149 26.8429V24.1649H11.471V26.8429V29.5209H14.149V26.8429Z" fill="black"/>
<path d="M67.706 26.8429H65.028V29.5209H67.706V26.8429Z" fill="black"/>
<path d="M81.096 26.8429H78.418V29.5209H81.096V26.8429Z" fill="black"/>
<path d="M11.471 32.1989V29.5209H8.79301V26.8429V24.1649H6.11501H3.43801V26.8429H6.11501V29.5209V32.1989H8.79301H11.471Z" fill="black"/>
<path d="M62.351 29.521H59.673V32.199H62.351V29.521Z" fill="black"/>
<path d="M89.129 32.1989V29.5209V26.8429V24.1649H86.451V26.8429H83.773V29.5209V32.1989V34.8769H86.451V32.1989H89.129Z" fill="black"/>
<path d="M6.11601 32.199H3.43801V34.877H6.11601V32.199Z" fill="black"/>
<path d="M73.062 13.4539H70.384V16.1319H73.062V13.4539Z" fill="black"/>
<path d="M70.384 16.132H67.706V18.81H70.384V16.132Z" fill="black"/>
<path d="M14.149 32.199H11.471V34.877H14.149V32.199Z" fill="black"/>
<path d="M32.894 32.199V29.521H30.216V32.199V34.877V37.554H32.894V34.877H35.572V32.199H32.894Z" fill="black"/>
<path d="M78.418 34.877V32.199V29.521H75.74V32.199H73.062V34.877H75.74H78.418Z" fill="black"/>
<path d="M8.79301 34.877H6.11501V37.555H8.79301V34.877Z" fill="black"/>
<path d="M16.827 37.554V40.232H19.505H22.182H24.86H27.538V37.554V34.877H24.86V37.554H22.182H19.505V34.877H22.182V32.199V29.521H19.505H16.827V32.199V34.877H14.149V37.554H16.827Z" fill="black"/>
<path d="M70.384 37.554H73.062V34.877H70.384H67.706V37.554V40.232H65.028V42.91V45.588H67.706V42.91H70.384V40.232V37.554Z" fill="black"/>
<path d="M81.095 37.554H78.418H75.74V40.232H78.418H81.095V42.91H83.773H86.451V40.232V37.554H83.773H81.095Z" fill="black"/>
<path d="M3.43801 40.232V37.554H0.76001V40.232V42.91H3.43801V40.232Z" fill="black"/>
<path d="M32.894 40.2319H30.216V42.9099H32.894V40.2319Z" fill="black"/>
<path d="M48.961 40.232V42.91H51.639H54.317H56.995V40.232V37.554H59.673H62.35H65.028V34.877V32.199H62.35V34.877H59.673H56.995V32.199H54.317V34.877V37.554H51.639V40.232H48.961Z" fill="black"/>
<path d="M73.062 42.9099H70.384V45.5879V48.2659H73.062V45.5879H75.74V42.9099V40.2319H73.062V42.9099Z" fill="black"/>
<path d="M30.216 45.5879V42.9099H27.538H24.86V45.5879H27.538H30.216Z" fill="black"/>
<path d="M35.572 45.5879V48.2659H38.25V50.9439V53.6219V56.2999H40.928V58.9779H43.606H46.284H48.962V56.2999V53.6219H46.284V56.2999H43.606V53.6219H40.928V50.9439V48.2659H43.606H46.284V50.9439H48.962V53.6219H51.64H54.318V56.2999H56.996V53.6219H59.674V50.9439H56.996V48.2659H54.318V50.9439H51.64V48.2659H48.962V45.5879H46.284H43.606V42.9099V40.2319V37.5539H46.284V40.2319H48.962V37.5539H51.64V34.8759V32.1979H48.962V34.8759H46.284V32.1979H48.962V29.5199H51.64V26.8419H48.962V24.1639H46.284V26.8419H43.606V24.1639H46.284V21.4859H48.962V18.8079V16.1299V13.4519V10.7739H51.64H54.318H56.996V13.4519H59.674V16.1299H62.352V18.8079H59.674V21.4859H56.996V24.1639H59.674V26.8419H62.352V24.1639H65.03V21.4859V18.8079V16.1299V13.4519H62.35V10.7739V8.09594V5.41994H59.672V2.74194H56.994H54.316H51.638V5.41994H54.316V8.09794H51.638H48.96H46.282V5.41994V2.74194H43.604V5.41994H40.926H38.25V8.09794H35.572V10.7759H38.25H40.928V8.09794H43.606V10.7759H46.284V13.4539V16.1319H43.606V18.8099V21.4879H40.928V24.1659H38.25V21.4879H35.572V24.1659H32.894V21.4879H30.216V24.1659H27.538H24.86V26.8439H27.538H30.216H32.894H35.572H38.25V29.5219V32.1999V34.8779H35.572V37.5559V40.2339V42.9119H32.894V45.5899H35.572V45.5879ZM40.928 32.1989V29.5209H43.606V32.1989V34.8769H40.928V32.1989ZM38.25 37.5539H40.928V40.2319H38.25V37.5539ZM40.928 42.9099V45.5879H38.25V42.9099H40.928Z" fill="black"/>
<path d="M59.673 45.5879H62.35V42.9099H59.673H56.995V45.5879H59.673Z" fill="black"/>
<path d="M3.43801 45.5879H0.76001V48.2659H3.43801V45.5879Z" fill="black"/>
<path d="M30.216 48.2659H27.538V50.9439H30.216V53.6219H32.894H35.572V50.9439H32.894V48.2659V45.5879H30.216V48.2659Z" fill="black"/>
<path d="M19.505 50.9439H22.182H24.86V48.2659V45.5879H22.182V42.9099H19.505H16.827H14.149V45.5879H16.827V48.2659H19.505V50.9439Z" fill="black"/>
<path d="M62.351 48.266H59.673V50.944H62.351V48.266Z" fill="black"/>
<path d="M73.062 48.2659V50.9439H70.384V53.6219H73.062H75.74V56.2999H78.418V58.9779V61.6559V64.3339V67.0119H75.74V69.6899H73.062V67.0119H75.74V64.3339H73.062H70.384H67.706V67.0119H70.384V69.6899H67.706V72.3679H65.028V75.0459V77.7239H67.706V75.0459H70.384V77.7239H67.706V80.4019H70.384V83.0799H67.706V85.7579H70.384V88.4359H73.062V85.7579H75.74V83.0799H78.418V85.7579H75.74V88.4359H78.418V91.1139H81.096V93.7919H78.418V91.1139H75.74V93.7919H73.062V96.4699H75.74H78.418H81.096H83.774H86.452H89.13V93.7919H91.808V91.1139H89.13H86.452V93.7919H83.774V91.1139H86.452V88.4359H83.774H81.096V85.7579V83.0799H83.774V77.7239H86.452H89.13V75.0459H91.808V72.3679H89.13H86.452V75.0459H83.774V72.3679H86.452V69.6899H83.774H81.096V67.0119V64.3339V61.6559V58.9779H83.774V61.6559V64.3339H86.452V61.6559V58.9779H89.13V56.2999H86.452H83.774H81.096V53.6219H78.418V50.9439H81.096V53.6219H83.774V50.9439H86.452V48.2659H83.774V45.5879H81.096H78.418H75.74V48.2659H73.062ZM81.095 80.3999H73.061V72.3659H81.095V80.3999Z" fill="black"/>
<path d="M67.706 50.944H70.384V48.266H67.706H65.028V50.944V53.622H67.706V50.944Z" fill="black"/>
<path d="M89.129 50.944H86.451V53.622H89.129V50.944Z" fill="black"/>
<path d="M19.505 53.6219H16.827V56.2999H19.505V53.6219Z" fill="black"/>
<path d="M65.028 53.6219H62.35V56.2999H65.028V53.6219Z" fill="black"/>
<path d="M54.317 56.299H51.639V58.9769H54.317V56.299Z" fill="black"/>
<path d="M67.706 58.9769H70.384V56.299H67.706H65.028V58.9769V61.6549H67.706V58.9769Z" fill="black"/>
<path d="M73.062 58.9769H70.384V61.6549H73.062V58.9769Z" fill="black"/>
<path d="M40.928 61.6549H38.25V64.3329H40.928V61.6549Z" fill="black"/>
<path d="M46.283 61.6549H43.605V64.3329H46.283V61.6549Z" fill="black"/>
<path d="M51.639 61.6549H48.961V64.3329H51.639V61.6549Z" fill="black"/>
<path d="M43.606 64.3329H40.928V67.0109H43.606V64.3329Z" fill="black"/>
<path d="M48.961 64.3329H46.283V67.0109H48.961V64.3329Z" fill="black"/>
<path d="M14.149 67.011V64.333V61.655V58.977V56.299H11.471H8.79301V53.622V50.944H11.471V53.622H14.149H16.827V50.944V48.266H14.149H11.471V45.588V42.91V40.232V37.554H8.79301V40.232V42.91V45.588V48.266H6.11501H3.43801V50.944H6.11501V53.622H3.43801V50.944H0.76001V53.622V56.299H3.43801V58.977H0.76001V61.655V64.333V67.011V69.689V72.367H3.43801H6.11501H8.79301V69.689H6.11501V67.011H3.43801V64.333V61.655H6.11501H8.79301V58.977H11.471V61.655V64.333V67.011H8.79301V69.689H11.471H14.149V72.367H16.827V69.689H19.505V67.011H16.827H14.149Z" fill="black"/>
<path d="M40.928 69.689V67.011H38.25V64.333H35.572V67.011H32.894V64.333H35.572V61.655V58.977V56.299H32.894H30.216V58.977H32.894V61.655H30.216H27.538H24.86H22.182V58.977H24.86H27.538V56.299H30.216V53.622H27.538V50.944H24.86V53.622V56.299H22.182H19.505V58.977V61.655H16.827V64.333H19.505V67.011H22.182V64.333H24.86V67.011H27.538V64.333H30.216V67.011V69.689H27.538H24.86V67.011H22.182V69.689V72.367H24.86H27.538V75.044H24.86V77.722H27.538V80.4H30.216V77.722V75.044V72.367H32.894V69.689H35.572V72.367H38.25V69.689H40.928Z" fill="black"/>
<path d="M56.995 69.6889H59.673V67.0109H62.35H65.028V64.3329V61.6549H62.35V64.3329H59.673H56.995V61.6549H54.317V64.3329V67.0109H56.995V69.6889Z" fill="black"/>
<path d="M67.706 67.011H65.028V69.689H67.706V67.011Z" fill="black"/>
<path d="M54.317 69.689V67.011H51.639V69.689V72.367H54.317V69.689Z" fill="black"/>
<path d="M65.028 69.689H62.35V72.367H65.028V69.689Z" fill="black"/>
<path d="M59.673 75.0439H62.35V72.3669H59.673H56.995H54.317V75.0439H56.995H59.673Z" fill="black"/>
<path d="M35.572 75.0439H32.894V77.7219H35.572H38.25V75.0439H35.572Z" fill="black"/>
<path d="M78.418 75.0439H75.74V77.7219H78.418V75.0439Z" fill="black"/>
<path d="M40.928 77.7219H38.25V80.3999H40.928V77.7219Z" fill="black"/>
<path d="M89.129 80.3999H86.451V83.0779H89.129V80.3999Z" fill="black"/>
<path d="M27.538 83.0779H24.86V85.7559H27.538V83.0779Z" fill="black"/>
<path d="M38.25 83.0779V80.3999H35.572V83.0779V85.7559V88.4339H38.25V85.7559V83.0779Z" fill="black"/>
<path d="M65.028 83.0779H62.35V85.7559H65.028V83.0779Z" fill="black"/>
<path d="M32.894 85.756H30.216V88.434H32.894V85.756Z" fill="black"/>
<path d="M43.606 85.756H40.928V88.434H43.606V85.756Z" fill="black"/>
<path d="M30.216 88.434H27.538H24.86V91.112V93.789H27.538V91.112H30.216V88.434Z" fill="black"/>
<path d="M40.928 88.434H38.25V91.112H40.928V88.434Z" fill="black"/>
<path d="M56.995 88.434H59.673V85.756H56.995H54.317V88.434V91.112H51.639V88.434H48.961V85.756H51.639H54.317V83.078H56.995H59.673H62.351V80.4H59.673H56.995H54.317V77.722V75.044H51.639V72.366H48.961H46.283V69.688H43.605H40.927V72.366H38.25V75.044H40.928H43.606V77.722V80.4V83.078V85.756H46.284V88.434H43.606V91.112V93.79H46.284V91.112H48.962V93.79H51.64H54.318H56.996V91.112L56.995 88.434ZM46.283 80.4H48.961V77.722H46.283V75.044H48.961V77.722H51.639V80.4V83.078H48.961H46.283V80.4Z" fill="black"/>
<path d="M35.572 91.1119H32.894V93.7899H35.572V91.1119Z" fill="black"/>
<path d="M32.894 93.7889H30.216V96.4669H32.894V93.7889Z" fill="black"/>
<path d="M38.25 93.7889H35.572V96.4669H38.25H40.928H43.605V93.7889H40.928H38.25Z" fill="black"/>
<path d="M48.961 93.7889H46.283V96.4669H48.961V93.7889Z" fill="black"/>
<path d="M91.807 61.6549H89.129V64.3329V67.0109H91.807V64.3329V61.6549Z" fill="black"/>
<path d="M91.807 53.622H89.129V56.299H91.807H94.485V58.977H97.162V56.299V53.622V50.944H94.485V53.622H91.807Z" fill="black"/>
<path d="M94.485 50.9439V48.2659H91.807V45.5879H89.129V48.2659V50.9439H91.807H94.485Z" fill="black"/>
<path d="M91.807 34.877H89.129H86.451V37.554H89.129V40.232V42.91H91.807V40.232H94.485V37.554H97.162V34.877H94.485H91.807Z" fill="black"/>
<path d="M94.485 67.0109H91.807V69.6889H94.485V72.3669V75.0439H97.162V72.3669V69.6889V67.0109V64.3329H94.485V67.0109Z" fill="black"/>
<path d="M67.706 85.756H65.028V88.434H67.706V85.756Z" fill="black"/>
<path d="M75.74 88.434H73.062V91.112H75.74V88.434Z" fill="black"/>
<path d="M70.384 91.112V88.434H67.706V91.112H65.028V88.434H62.35V91.112H59.673V93.789H56.995V96.467H59.673H62.35V93.789H65.028V96.467H67.706V93.789H70.384H73.062V91.112H70.384Z" fill="black"/>
<path d="M91.807 83.0779H89.129V85.7559H91.807V83.0779Z" fill="black"/>
<path d="M94.485 85.7559H91.807V88.4339H94.485V91.1119V93.7889H97.162V91.1119V88.4339V85.7559V83.0779H94.485V85.7559Z" fill="black"/>
<path d="M22.182 0.0649414H0.76001V21.4879H22.183L22.182 0.0649414ZM19.505 18.8089H3.43801V2.74194H19.505V18.8089Z" fill="black"/>
<path d="M16.828 5.41992H6.11601V16.1309H16.828V5.41992Z" fill="black"/>
<path d="M0.76001 97.0319H22.183V75.6089H0.76001V97.0319ZM3.43801 78.2869H19.505V94.3539H3.43801V78.2869Z" fill="black"/>
<path d="M16.828 80.965H6.11601V91.676H16.828V80.965Z" fill="black"/>
<path d="M75.74 0.0649414V21.4879H97.163V0.0649414H75.74ZM94.485 18.8089H78.418V2.74194H94.485V18.8089Z" fill="black"/>
<path d="M91.807 5.41992H81.096V16.1309H91.807V5.41992Z" fill="black"/>
</svg>
