<svg width="40" height="41" viewBox="0 0 40 41" fill="none" xmlns="http://www.w3.org/2000/svg">
<circle cx="20" cy="20.6511" r="20" fill="#A18EE8"/>
<path d="M23.8333 15.5011C23.2637 14.8508 22.9498 14.0156 22.95 13.1511H20.375V23.4845C20.3551 24.0436 20.1191 24.5733 19.7165 24.9619C19.3139 25.3505 18.7762 25.5677 18.2167 25.5678C17.0333 25.5678 16.05 24.6011 16.05 23.4011C16.05 21.9678 17.4333 20.8928 18.8583 21.3345V18.7011C15.9833 18.3178 13.4667 20.5511 13.4667 23.4011C13.4667 26.1761 15.7667 28.1511 18.2083 28.1511C20.825 28.1511 22.95 26.0261 22.95 23.4011V18.1595C23.9942 18.9093 25.2478 19.3117 26.5333 19.3095V16.7345C26.5333 16.7345 24.9667 16.8095 23.8333 15.5011Z" fill="white"/>
</svg>
