<svg width="188" height="35" viewBox="0 0 188 35" fill="none" xmlns="http://www.w3.org/2000/svg">
<path d="M15.544 0.331806V0.810359C13.9901 2.71151 14.3626 5.51755 16.7205 11.2515L21.5979 23.1412L24.0488 16.9593C24.5552 15.728 24.9856 14.4733 25.338 13.2005L23.5292 8.79779C22.0832 5.27827 20.044 1.99803 18.6518 0.810359V0.331806H34.1958V0.810359C32.6419 2.71151 33.0145 5.51755 35.3723 11.2515L40.2742 23.1412L42.7252 16.9593C46.1565 8.3497 45.0291 2.30692 43.7987 0.788612V0.310059H52.2692V0.788612C50.1761 2.30692 46.9065 8.49326 44.5487 14.4838L36.936 33.6259H33.7203L25.8772 14.4838L18.2646 33.6259H15.0489L4.90192 8.79779C3.43135 5.27827 1.41666 1.99803 0 0.810359V0.331806H15.544Z" fill="#A18EE8"/>
<path d="M54.5682 21.3009C57.5878 25.4077 62.573 28.6357 67.9554 25.7818C70.2985 24.5376 72.2789 22.3754 72.0436 19.8957L72.5338 20.0088C73.3916 24.7116 70.9308 29.123 65.8671 31.8072C59.0584 35.4181 51.4702 33.7954 47.4016 27.7526C43.0242 21.2617 45.98 14.4271 51.73 11.3775C58.4456 7.81445 65.1515 11.4601 67.3769 14.488L54.5682 21.3009ZM59.5829 18.0859C58.0829 14.2792 54.0535 10.7118 52.3035 11.6385C50.6516 12.5086 51.632 17.0374 54.2937 20.8919L59.5829 18.0859Z" fill="#A18EE8"/>
<path d="M130.759 21.3008C133.773 25.4077 138.764 28.6357 144.146 25.7818C146.489 24.5376 148.469 22.3754 148.234 19.8956L148.749 20.0087C149.607 24.7116 147.146 29.1229 142.082 31.8072C135.273 35.4181 127.685 33.7953 123.617 27.7525C119.239 21.2617 122.195 14.4184 127.94 11.3731C134.656 7.81006 141.362 11.4557 143.587 14.4837L130.759 21.3008ZM135.783 18.0858C134.283 14.2792 130.254 10.7118 128.504 11.6385C126.847 12.5085 127.832 17.0374 130.494 20.8919L135.783 18.0858Z" fill="#A18EE8"/>
<path d="M73.4062 33.6301V33.1559C74.2102 32.1075 74.5876 28.7794 74.5876 21.9274V11.4645C74.5876 3.19867 74.2641 1.28447 72.7641 1.18876V0.714563C75.1219 -0.238188 80.3131 -0.238188 82.6219 0.714563V21.9274C82.6219 28.7794 82.9944 32.1075 83.7983 33.1559V33.6301H73.4062Z" fill="#A18EE8"/>
<path d="M85.4406 33.6301V33.1559C86.2445 32.1075 86.6219 28.7794 86.6219 21.9274V11.4645C86.6219 3.19867 86.2984 1.28447 84.7984 1.18876V0.714563C87.1562 -0.238187 92.3474 -0.238187 94.6513 0.714563V21.9274C94.6513 28.7794 95.0287 32.1075 95.8326 33.1559V33.6301H85.4406Z" fill="#A18EE8"/>
<path d="M120.097 21.9274C120.097 28.7794 120.475 32.1075 121.278 33.156V33.6302H110.906V33.156C111.71 32.1075 112.087 28.7794 112.087 21.9274V17.838C112.087 15.554 111.71 13.6877 110.318 13.6877C108.926 13.6877 106.994 15.6019 106.994 20.9312V21.9274C106.994 28.7794 107.367 32.1075 108.171 33.156V33.6302H97.7345V33.156C98.5384 32.1075 98.9159 28.7794 98.9159 21.9274V21.4924C98.9159 13.2265 98.5924 11.3123 97.0924 11.2166V10.7424C99.4502 9.78964 104.69 9.78964 106.994 10.7424V15.5061C108.171 11.4646 111.764 9.75049 114.764 9.75049C119.107 9.75049 120.102 13.2309 120.102 17.9337L120.097 21.9274Z" fill="#A18EE8"/>
<path d="M162.455 30.1105C162.455 25.2119 149.484 24.6855 149.484 17.4942C149.484 13.1177 154.308 9.7417 161.278 9.7417C167.817 9.7417 171.459 12.6913 171.94 15.6888L163.901 18.5905C167.44 14.3097 165.455 10.2159 161.974 10.2159C159.724 10.2159 158.489 11.9778 158.489 13.6963C158.489 19.3519 171.994 19.639 171.994 26.6345C171.994 31.1503 166.366 34.0521 160.097 34.0521C154.362 34.0521 149.43 31.6288 148.822 28.1093L156.862 25.2076C153.754 28.962 155.734 33.5779 158.822 33.5779C160.739 33.5822 162.455 31.8681 162.455 30.1105Z" fill="#A18EE8"/>
<path d="M187.254 26.9695C186.504 30.7283 184.611 33.7257 179.41 33.7257C175.602 33.7257 174.018 30.6804 174.018 26.3517V13.1133C174.018 11.4992 173.803 10.9728 172.842 10.5465V9.73731C175.842 9.40667 180.744 4.87785 182.567 0.218506H183.102V9.73731H187.254V10.4464H183.126V25.1031C183.126 30.241 185.822 28.1484 186.93 26.5301L187.254 26.9695Z" fill="#A18EE8"/>
</svg>
